<svg xmlns="http://www.w3.org/2000/svg" xmlns:xlink="http://www.w3.org/1999/xlink" viewBox="0 0 800 800" width="800" height="800" preserveAspectRatio="xMidYMid meet" style="width: 100%; height: 100%; transform: translate3d(0px, 0px, 0px); content-visibility: visible;"><defs><clipPath id="__lottie_element_8819"><rect width="800" height="800" x="0" y="0"></rect></clipPath><g id="__lottie_element_8900"><g transform="matrix(1.0526248216629028,0,0,1.0526248216629028,643.70654296875,307.3163146972656)" opacity="1" style="display: block;"><g opacity="1" transform="matrix(1,0,0,1,0,0)"><path fill="rgb(114,72,238)" fill-opacity="1" d=" M-69.52400207519531,10.604999542236328 C-69.52400207519531,10.604999542236328 -69.52400207519531,48.37900161743164 -69.52400207519531,48.37900161743164 C-69.52400207519531,54.20000076293945 -64.80500030517578,58.91899871826172 -58.98400115966797,58.91899871826172 C-58.98400115966797,58.91899871826172 -58.98400115966797,58.91899871826172 -58.98400115966797,58.91899871826172 C-53.16299819946289,58.91899871826172 -48.444000244140625,54.20000076293945 -48.444000244140625,48.37900161743164 C-48.444000244140625,48.37900161743164 -48.444000244140625,10.604999542236328 -48.444000244140625,10.604999542236328 C-48.444000244140625,-16.149999618530273 -26.7549991607666,-37.8390007019043 0,-37.8390007019043 C0,-37.8390007019043 0,-37.8390007019043 0,-37.8390007019043 C26.7549991607666,-37.8390007019043 48.444000244140625,-16.149999618530273 48.444000244140625,10.604999542236328 C48.444000244140625,10.604999542236328 48.444000244140625,48.37900161743164 48.444000244140625,48.37900161743164 C48.444000244140625,54.20000076293945 53.16299819946289,58.91899871826172 58.98400115966797,58.91899871826172 C58.98400115966797,58.91899871826172 58.98400115966797,58.91899871826172 58.98400115966797,58.91899871826172 C64.80500030517578,58.91899871826172 69.52400207519531,54.20000076293945 69.52400207519531,48.37900161743164 C69.52400207519531,48.37900161743164 69.52400207519531,10.604999542236328 69.52400207519531,10.604999542236328 C69.52400207519531,-27.79199981689453 38.39699935913086,-58.91899871826172 0,-58.91899871826172 C0,-58.91899871826172 0,-58.91899871826172 0,-58.91899871826172 C-38.39699935913086,-58.91899871826172 -69.52400207519531,-27.79199981689453 -69.52400207519531,10.604999542236328z"></path><path stroke-linecap="round" stroke-linejoin="round" fill-opacity="0" stroke="rgb(35,31,32)" stroke-opacity="1" stroke-width="3" d=" M-69.52400207519531,10.604999542236328 C-69.52400207519531,10.604999542236328 -69.52400207519531,48.37900161743164 -69.52400207519531,48.37900161743164 C-69.52400207519531,54.20000076293945 -64.80500030517578,58.91899871826172 -58.98400115966797,58.91899871826172 C-58.98400115966797,58.91899871826172 -58.98400115966797,58.91899871826172 -58.98400115966797,58.91899871826172 C-53.16299819946289,58.91899871826172 -48.444000244140625,54.20000076293945 -48.444000244140625,48.37900161743164 C-48.444000244140625,48.37900161743164 -48.444000244140625,10.604999542236328 -48.444000244140625,10.604999542236328 C-48.444000244140625,-16.149999618530273 -26.7549991607666,-37.8390007019043 0,-37.8390007019043 C0,-37.8390007019043 0,-37.8390007019043 0,-37.8390007019043 C26.7549991607666,-37.8390007019043 48.444000244140625,-16.149999618530273 48.444000244140625,10.604999542236328 C48.444000244140625,10.604999542236328 48.444000244140625,48.37900161743164 48.444000244140625,48.37900161743164 C48.444000244140625,54.20000076293945 53.16299819946289,58.91899871826172 58.98400115966797,58.91899871826172 C58.98400115966797,58.91899871826172 58.98400115966797,58.91899871826172 58.98400115966797,58.91899871826172 C64.80500030517578,58.91899871826172 69.52400207519531,54.20000076293945 69.52400207519531,48.37900161743164 C69.52400207519531,48.37900161743164 69.52400207519531,10.604999542236328 69.52400207519531,10.604999542236328 C69.52400207519531,-27.79199981689453 38.39699935913086,-58.91899871826172 0,-58.91899871826172 C0,-58.91899871826172 0,-58.91899871826172 0,-58.91899871826172 C-38.39699935913086,-58.91899871826172 -69.52400207519531,-27.79199981689453 -69.52400207519531,10.604999542236328z"></path></g></g></g><mask id="__lottie_element_8900_1" mask-type="alpha"><use xlink:href="#__lottie_element_8900"></use></mask><clipPath id="__lottie_element_8915"><path d="M0,0 L760,0 L760,760 L0,760z"></path></clipPath><g id="__lottie_element_8900"><g transform="matrix(1.0526248216629028,0,0,1.0526248216629028,643.70654296875,307.3163146972656)" opacity="1" style="display: block;"><g opacity="1" transform="matrix(1,0,0,1,0,0)"><path fill="rgb(114,72,238)" fill-opacity="1" d=" M-69.52400207519531,10.604999542236328 C-69.52400207519531,10.604999542236328 -69.52400207519531,48.37900161743164 -69.52400207519531,48.37900161743164 C-69.52400207519531,54.20000076293945 -64.80500030517578,58.91899871826172 -58.98400115966797,58.91899871826172 C-58.98400115966797,58.91899871826172 -58.98400115966797,58.91899871826172 -58.98400115966797,58.91899871826172 C-53.16299819946289,58.91899871826172 -48.444000244140625,54.20000076293945 -48.444000244140625,48.37900161743164 C-48.444000244140625,48.37900161743164 -48.444000244140625,10.604999542236328 -48.444000244140625,10.604999542236328 C-48.444000244140625,-16.149999618530273 -26.7549991607666,-37.8390007019043 0,-37.8390007019043 C0,-37.8390007019043 0,-37.8390007019043 0,-37.8390007019043 C26.7549991607666,-37.8390007019043 48.444000244140625,-16.149999618530273 48.444000244140625,10.604999542236328 C48.444000244140625,10.604999542236328 48.444000244140625,48.37900161743164 48.444000244140625,48.37900161743164 C48.444000244140625,54.20000076293945 53.16299819946289,58.91899871826172 58.98400115966797,58.91899871826172 C58.98400115966797,58.91899871826172 58.98400115966797,58.91899871826172 58.98400115966797,58.91899871826172 C64.80500030517578,58.91899871826172 69.52400207519531,54.20000076293945 69.52400207519531,48.37900161743164 C69.52400207519531,48.37900161743164 69.52400207519531,10.604999542236328 69.52400207519531,10.604999542236328 C69.52400207519531,-27.79199981689453 38.39699935913086,-58.91899871826172 0,-58.91899871826172 C0,-58.91899871826172 0,-58.91899871826172 0,-58.91899871826172 C-38.39699935913086,-58.91899871826172 -69.52400207519531,-27.79199981689453 -69.52400207519531,10.604999542236328z"></path><path stroke-linecap="round" stroke-linejoin="round" fill-opacity="0" stroke="rgb(35,31,32)" stroke-opacity="1" stroke-width="3" d=" M-69.52400207519531,10.604999542236328 C-69.52400207519531,10.604999542236328 -69.52400207519531,48.37900161743164 -69.52400207519531,48.37900161743164 C-69.52400207519531,54.20000076293945 -64.80500030517578,58.91899871826172 -58.98400115966797,58.91899871826172 C-58.98400115966797,58.91899871826172 -58.98400115966797,58.91899871826172 -58.98400115966797,58.91899871826172 C-53.16299819946289,58.91899871826172 -48.444000244140625,54.20000076293945 -48.444000244140625,48.37900161743164 C-48.444000244140625,48.37900161743164 -48.444000244140625,10.604999542236328 -48.444000244140625,10.604999542236328 C-48.444000244140625,-16.149999618530273 -26.7549991607666,-37.8390007019043 0,-37.8390007019043 C0,-37.8390007019043 0,-37.8390007019043 0,-37.8390007019043 C26.7549991607666,-37.8390007019043 48.444000244140625,-16.149999618530273 48.444000244140625,10.604999542236328 C48.444000244140625,10.604999542236328 48.444000244140625,48.37900161743164 48.444000244140625,48.37900161743164 C48.444000244140625,54.20000076293945 53.16299819946289,58.91899871826172 58.98400115966797,58.91899871826172 C58.98400115966797,58.91899871826172 58.98400115966797,58.91899871826172 58.98400115966797,58.91899871826172 C64.80500030517578,58.91899871826172 69.52400207519531,54.20000076293945 69.52400207519531,48.37900161743164 C69.52400207519531,48.37900161743164 69.52400207519531,10.604999542236328 69.52400207519531,10.604999542236328 C69.52400207519531,-27.79199981689453 38.39699935913086,-58.91899871826172 0,-58.91899871826172 C0,-58.91899871826172 0,-58.91899871826172 0,-58.91899871826172 C-38.39699935913086,-58.91899871826172 -69.52400207519531,-27.79199981689453 -69.52400207519531,10.604999542236328z"></path></g></g></g></defs><g clip-path="url(#__lottie_element_8819)"><g clip-path="url(#__lottie_element_8915)" transform="matrix(1.0526299476623535,0,0,1.0526299476623535,0.0006103515625,0.0006103515625)" opacity="1" style="display: block;"><g transform="matrix(0.9278734922409058,-0.3728950619697571,0.3728950619697571,0.9278734922409058,611.3784790039062,159.3780059814453)" opacity="1" style="display: block;"><g opacity="1" transform="matrix(1,0,0,1,0,0)"><path fill="#EE4878" fill-opacity="1" d=" M-6.185999870300293,-22.795000076293945 C-6.185999870300293,-22.795000076293945 14.230999946594238,18.85099983215332 14.230999946594238,18.85099983215332 C15.319999694824219,21.072999954223633 14.402000427246094,23.756999969482422 12.180000305175781,24.84600067138672 C12.180000305175781,24.84600067138672 12.180000305175781,24.84600067138672 12.180000305175781,24.84600067138672 C9.958000183105469,25.934999465942383 7.275000095367432,25.017000198364258 6.185999870300293,22.795000076293945 C6.185999870300293,22.795000076293945 -14.230999946594238,-18.85099983215332 -14.230999946594238,-18.85099983215332 C-15.319999694824219,-21.072999954223633 -14.402000427246094,-23.756999969482422 -12.180000305175781,-24.84600067138672 C-12.180000305175781,-24.84600067138672 -12.180000305175781,-24.84600067138672 -12.180000305175781,-24.84600067138672 C-9.958000183105469,-25.934999465942383 -7.275000095367432,-25.017000198364258 -6.185999870300293,-22.795000076293945z"></path><path stroke-linecap="round" stroke-linejoin="round" fill-opacity="0" stroke="#231F20" stroke-opacity="1" stroke-width="3px" d=" M-6.185999870300293,-22.795000076293945 C-6.185999870300293,-22.795000076293945 14.230999946594238,18.85099983215332 14.230999946594238,18.85099983215332 C15.319999694824219,21.072999954223633 14.402000427246094,23.756999969482422 12.180000305175781,24.84600067138672 C12.180000305175781,24.84600067138672 12.180000305175781,24.84600067138672 12.180000305175781,24.84600067138672 C9.958000183105469,25.934999465942383 7.275000095367432,25.017000198364258 6.185999870300293,22.795000076293945 C6.185999870300293,22.795000076293945 -14.230999946594238,-18.85099983215332 -14.230999946594238,-18.85099983215332 C-15.319999694824219,-21.072999954223633 -14.402000427246094,-23.756999969482422 -12.180000305175781,-24.84600067138672 C-12.180000305175781,-24.84600067138672 -12.180000305175781,-24.84600067138672 -12.180000305175781,-24.84600067138672 C-9.958000183105469,-25.934999465942383 -7.275000095367432,-25.017000198364258 -6.185999870300293,-22.795000076293945z"></path></g></g><g transform="matrix(0.9468530416488647,0.3216664791107178,-0.3216664791107178,0.9468530416488647,162.18385314941406,126.4195556640625)" opacity="1" style="display: block;"><g opacity="1" transform="matrix(1,0,0,1,0,0)"><path fill="#C3ACF1" fill-opacity="1" d=" M18.759000778198242,-14.508000373840332 C18.759000778198242,-14.508000373840332 -12.01200008392334,20.447999954223633 -12.01200008392334,20.447999954223633 C-13.652000427246094,22.31100082397461 -16.492000579833984,22.492000579833984 -18.354999542236328,20.851999282836914 C-18.354999542236328,20.851999282836914 -18.354999542236328,20.851999282836914 -18.354999542236328,20.851999282836914 C-20.218000411987305,19.211999893188477 -20.39900016784668,16.371000289916992 -18.759000778198242,14.508000373840332 C-18.759000778198242,14.508000373840332 12.01200008392334,-20.447999954223633 12.01200008392334,-20.447999954223633 C13.652000427246094,-22.31100082397461 16.492000579833984,-22.492000579833984 18.354999542236328,-20.851999282836914 C18.354999542236328,-20.851999282836914 18.354999542236328,-20.851999282836914 18.354999542236328,-20.851999282836914 C20.218000411987305,-19.211999893188477 20.39900016784668,-16.371000289916992 18.759000778198242,-14.508000373840332z"></path><path stroke-linecap="round" stroke-linejoin="round" fill-opacity="0" stroke="#231F20" stroke-opacity="1" stroke-width="3px" d=" M18.759000778198242,-14.508000373840332 C18.759000778198242,-14.508000373840332 -12.01200008392334,20.447999954223633 -12.01200008392334,20.447999954223633 C-13.652000427246094,22.31100082397461 -16.492000579833984,22.492000579833984 -18.354999542236328,20.851999282836914 C-18.354999542236328,20.851999282836914 -18.354999542236328,20.851999282836914 -18.354999542236328,20.851999282836914 C-20.218000411987305,19.211999893188477 -20.39900016784668,16.371000289916992 -18.759000778198242,14.508000373840332 C-18.759000778198242,14.508000373840332 12.01200008392334,-20.447999954223633 12.01200008392334,-20.447999954223633 C13.652000427246094,-22.31100082397461 16.492000579833984,-22.492000579833984 18.354999542236328,-20.851999282836914 C18.354999542236328,-20.851999282836914 18.354999542236328,-20.851999282836914 18.354999542236328,-20.851999282836914 C20.218000411987305,-19.211999893188477 20.39900016784668,-16.371000289916992 18.759000778198242,-14.508000373840332z"></path></g></g><g transform="matrix(1,0,0,1,311.0523681640625,69.51459503173828)" opacity="1" style="display: block;"><g opacity="1" transform="matrix(1,0,0,1,0,0)"><path fill="#F7B3C7" fill-opacity="1" d=" M8.217000007629395,0 C8.217000007629395,-4.538000106811523 4.538000106811523,-8.217000007629395 0,-8.217000007629395 C-4.538000106811523,-8.217000007629395 -8.217000007629395,-4.538000106811523 -8.217000007629395,0 C-8.217000007629395,4.538000106811523 -4.538000106811523,8.217000007629395 0,8.217000007629395 C4.538000106811523,8.217000007629395 8.217000007629395,4.538000106811523 8.217000007629395,0z"></path><path stroke-linecap="round" stroke-linejoin="round" fill-opacity="0" stroke="#231F20" stroke-opacity="1" stroke-width="3px" d=" M8.217000007629395,0 C8.217000007629395,-4.538000106811523 4.538000106811523,-8.217000007629395 0,-8.217000007629395 C-4.538000106811523,-8.217000007629395 -8.217000007629395,-4.538000106811523 -8.217000007629395,0 C-8.217000007629395,4.538000106811523 -4.538000106811523,8.217000007629395 0,8.217000007629395 C4.538000106811523,8.217000007629395 8.217000007629395,4.538000106811523 8.217000007629395,0z"></path></g></g><g transform="matrix(1,0,0,1,680.8705444335938,581.2529907226562)" opacity="1" style="display: block;"><g opacity="1" transform="matrix(1,0,0,1,0,0)"><path fill="#F7B3C7" fill-opacity="1" d=" M8.217000007629395,0 C8.217000007629395,-4.538000106811523 4.538000106811523,-8.217000007629395 0,-8.217000007629395 C-4.538000106811523,-8.217000007629395 -8.217000007629395,-4.538000106811523 -8.217000007629395,0 C-8.217000007629395,4.538000106811523 -4.538000106811523,8.217000007629395 0,8.217000007629395 C4.538000106811523,8.217000007629395 8.217000007629395,4.538000106811523 8.217000007629395,0z"></path><path stroke-linecap="round" stroke-linejoin="round" fill-opacity="0" stroke="#231F20" stroke-opacity="1" stroke-width="3px" d=" M8.217000007629395,0 C8.217000007629395,-4.538000106811523 4.538000106811523,-8.217000007629395 0,-8.217000007629395 C-4.538000106811523,-8.217000007629395 -8.217000007629395,-4.538000106811523 -8.217000007629395,0 C-8.217000007629395,4.538000106811523 -4.538000106811523,8.217000007629395 0,8.217000007629395 C4.538000106811523,8.217000007629395 8.217000007629395,4.538000106811523 8.217000007629395,0z"></path></g></g><g transform="matrix(1,0,0,1,443.8699951171875,345.1353759765625)" opacity="1" style="display: block;"><g opacity="1" transform="matrix(1,0,0,1,0,0)"><path fill="#EE4878" fill-opacity="1" d=" M8.217000007629395,0 C8.217000007629395,-4.538000106811523 4.538000106811523,-8.217000007629395 0,-8.217000007629395 C-4.538000106811523,-8.217000007629395 -8.217000007629395,-4.538000106811523 -8.217000007629395,0 C-8.217000007629395,4.538000106811523 -4.538000106811523,8.217000007629395 0,8.217000007629395 C4.538000106811523,8.217000007629395 8.217000007629395,4.538000106811523 8.217000007629395,0z"></path><path stroke-linecap="round" stroke-linejoin="round" fill-opacity="0" stroke="#231F20" stroke-opacity="1" stroke-width="3px" d=" M8.217000007629395,0 C8.217000007629395,-4.538000106811523 4.538000106811523,-8.217000007629395 0,-8.217000007629395 C-4.538000106811523,-8.217000007629395 -8.217000007629395,-4.538000106811523 -8.217000007629395,0 C-8.217000007629395,4.538000106811523 -4.538000106811523,8.217000007629395 0,8.217000007629395 C4.538000106811523,8.217000007629395 8.217000007629395,4.538000106811523 8.217000007629395,0z"></path></g></g><g transform="matrix(1,0,0,1,679.7692260742188,202.50071716308594)" opacity="1" style="display: block;"><g opacity="1" transform="matrix(1,0,0,1,0,0)"><path fill="#7248EE" fill-opacity="1" d=" M8.217000007629395,0 C8.217000007629395,-4.538000106811523 4.538000106811523,-8.217000007629395 0,-8.217000007629395 C-4.538000106811523,-8.217000007629395 -8.217000007629395,-4.538000106811523 -8.217000007629395,0 C-8.217000007629395,4.538000106811523 -4.538000106811523,8.217000007629395 0,8.217000007629395 C4.538000106811523,8.217000007629395 8.217000007629395,4.538000106811523 8.217000007629395,0z"></path><path stroke-linecap="round" stroke-linejoin="round" fill-opacity="0" stroke="#231F20" stroke-opacity="1" stroke-width="3px" d=" M8.217000007629395,0 C8.217000007629395,-4.538000106811523 4.538000106811523,-8.217000007629395 0,-8.217000007629395 C-4.538000106811523,-8.217000007629395 -8.217000007629395,-4.538000106811523 -8.217000007629395,0 C-8.217000007629395,4.538000106811523 -4.538000106811523,8.217000007629395 0,8.217000007629395 C4.538000106811523,8.217000007629395 8.217000007629395,4.538000106811523 8.217000007629395,0z"></path></g></g><g transform="matrix(1,0,0,1,246.9670867919922,104.95205688476562)" opacity="1" style="display: block;"><g opacity="1" transform="matrix(1,0,0,1,0,0)"><path fill="#CAE062" fill-opacity="1" d=" M4.696000099182129,0 C4.696000099182129,-2.5929999351501465 2.5929999351501465,-4.696000099182129 0,-4.696000099182129 C-2.5929999351501465,-4.696000099182129 -4.696000099182129,-2.5929999351501465 -4.696000099182129,0 C-4.696000099182129,2.5929999351501465 -2.5929999351501465,4.696000099182129 0,4.696000099182129 C2.5929999351501465,4.696000099182129 4.696000099182129,2.5929999351501465 4.696000099182129,0z"></path><path stroke-linecap="round" stroke-linejoin="round" fill-opacity="0" stroke="#231F20" stroke-opacity="1" stroke-width="3px" d=" M4.696000099182129,0 C4.696000099182129,-2.5929999351501465 2.5929999351501465,-4.696000099182129 0,-4.696000099182129 C-2.5929999351501465,-4.696000099182129 -4.696000099182129,-2.5929999351501465 -4.696000099182129,0 C-4.696000099182129,2.5929999351501465 -2.5929999351501465,4.696000099182129 0,4.696000099182129 C2.5929999351501465,4.696000099182129 4.696000099182129,2.5929999351501465 4.696000099182129,0z"></path></g></g><g transform="matrix(1,0,0,1,321.93414306640625,333.9051208496094)" opacity="1" style="display: block;"><g opacity="1" transform="matrix(1,0,0,1,0,0)"><path fill="#CAE062" fill-opacity="1" d=" M4.696000099182129,0 C4.696000099182129,-2.5929999351501465 2.5929999351501465,-4.696000099182129 0,-4.696000099182129 C-2.5929999351501465,-4.696000099182129 -4.696000099182129,-2.5929999351501465 -4.696000099182129,0 C-4.696000099182129,2.5929999351501465 -2.5929999351501465,4.696000099182129 0,4.696000099182129 C2.5929999351501465,4.696000099182129 4.696000099182129,2.5929999351501465 4.696000099182129,0z"></path><path stroke-linecap="round" stroke-linejoin="round" fill-opacity="0" stroke="#231F20" stroke-opacity="1" stroke-width="3px" d=" M4.696000099182129,0 C4.696000099182129,-2.5929999351501465 2.5929999351501465,-4.696000099182129 0,-4.696000099182129 C-2.5929999351501465,-4.696000099182129 -4.696000099182129,-2.5929999351501465 -4.696000099182129,0 C-4.696000099182129,2.5929999351501465 -2.5929999351501465,4.696000099182129 0,4.696000099182129 C2.5929999351501465,4.696000099182129 4.696000099182129,2.5929999351501465 4.696000099182129,0z"></path></g></g><g transform="matrix(1,0,0,1,100.97285461425781,548.9097900390625)" opacity="1" style="display: block;"><g opacity="1" transform="matrix(1,0,0,1,0,0)"><path fill="#CAE062" fill-opacity="1" d=" M4.696000099182129,0 C4.696000099182129,-2.5929999351501465 2.5929999351501465,-4.696000099182129 0,-4.696000099182129 C-2.5929999351501465,-4.696000099182129 -4.696000099182129,-2.5929999351501465 -4.696000099182129,0 C-4.696000099182129,2.5929999351501465 -2.5929999351501465,4.696000099182129 0,4.696000099182129 C2.5929999351501465,4.696000099182129 4.696000099182129,2.5929999351501465 4.696000099182129,0z"></path><path stroke-linecap="round" stroke-linejoin="round" fill-opacity="0" stroke="#231F20" stroke-opacity="1" stroke-width="3px" d=" M4.696000099182129,0 C4.696000099182129,-2.5929999351501465 2.5929999351501465,-4.696000099182129 0,-4.696000099182129 C-2.5929999351501465,-4.696000099182129 -4.696000099182129,-2.5929999351501465 -4.696000099182129,0 C-4.696000099182129,2.5929999351501465 -2.5929999351501465,4.696000099182129 0,4.696000099182129 C2.5929999351501465,4.696000099182129 4.696000099182129,2.5929999351501465 4.696000099182129,0z"></path></g></g><g transform="matrix(1,0,0,1,671.7990112304688,156.38746643066406)" opacity="1" style="display: block;"><g opacity="1" transform="matrix(1,0,0,1,0,0)"><path fill="#CAE062" fill-opacity="1" d=" M4.696000099182129,0 C4.696000099182129,-2.5929999351501465 2.5929999351501465,-4.696000099182129 0,-4.696000099182129 C-2.5929999351501465,-4.696000099182129 -4.696000099182129,-2.5929999351501465 -4.696000099182129,0 C-4.696000099182129,2.5929999351501465 -2.5929999351501465,4.696000099182129 0,4.696000099182129 C2.5929999351501465,4.696000099182129 4.696000099182129,2.5929999351501465 4.696000099182129,0z"></path><path stroke-linecap="round" stroke-linejoin="round" fill-opacity="0" stroke="#231F20" stroke-opacity="1" stroke-width="3px" d=" M4.696000099182129,0 C4.696000099182129,-2.5929999351501465 2.5929999351501465,-4.696000099182129 0,-4.696000099182129 C-2.5929999351501465,-4.696000099182129 -4.696000099182129,-2.5929999351501465 -4.696000099182129,0 C-4.696000099182129,2.5929999351501465 -2.5929999351501465,4.696000099182129 0,4.696000099182129 C2.5929999351501465,4.696000099182129 4.696000099182129,2.5929999351501465 4.696000099182129,0z"></path></g></g></g><g transform="matrix(1.0526354312896729,0,0,1.0526354312896729,585.1498413085938,436.4502258300781)" opacity="1" style="display: block;"><g opacity="1" transform="matrix(1,0,0,1,0,0)"><path stroke-linecap="round" stroke-linejoin="round" fill-opacity="0" stroke="#231F20" stroke-opacity="1" stroke-width="3px" d=" M55.52299880981445,-60.4640007019043 C55.52299880981445,-60.4640007019043 55.62799835205078,27.464000701904297 55.62799835205078,27.464000701904297 C55.62799835205078,27.464000701904297 -55.62799835205078,27.464000701904297 -55.62799835205078,27.464000701904297"></path></g></g><g transform="matrix(1.0526354312896729,0,0,1.0526354312896729,521.8857421875,349.8751220703125)" opacity="1" style="display: block;"><g opacity="1" transform="matrix(1,0,0,1,0,0)"><path stroke-linecap="round" stroke-linejoin="round" fill-opacity="0" stroke="#231F20" stroke-opacity="1" stroke-width="3px" d=" M16.937000274658203,-137.81100463867188 C16.937000274658203,-137.81100463867188 16.9060001373291,-11.151000022888184 16.9060001373291,-11.151000022888184 C16.9060001373291,-11.151000022888184 -16.9060001373291,-11.151000022888184 -16.9060001373291,-11.151000022888184 C-16.9060001373291,-11.151000022888184 -16.9060001373291,83.81099700927734 -16.9060001373291,83.81099700927734"></path></g></g><g transform="matrix(1.0526354312896729,0,0,1.0526354312896729,415.1095886230469,365.5206298828125)" opacity="1" style="display: block;"><g opacity="1" transform="matrix(1,0,0,1,0,0)"><path stroke-linecap="round" stroke-linejoin="round" fill-opacity="0" stroke="#231F20" stroke-opacity="1" stroke-width="3px" d=" M-0.2939999997615814,-82.35700225830078 C-0.2939999997615814,-82.35700225830078 0,42.80500030517578 0,42.80500030517578"></path></g></g><g transform="matrix(1.0526354312896729,0,0,1.0526354312896729,285.2365417480469,351.0113525390625)" opacity="1" style="display: block;"><g opacity="1" transform="matrix(1,0,0,1,0,0)"><path stroke-linecap="round" stroke-linejoin="round" fill-opacity="0" stroke="#231F20" stroke-opacity="1" stroke-width="3px" d=" M-20.750999450683594,-119.73200225830078 C-20.750999450683594,-119.73200225830078 -20.86663246154785,-10.835785865783691 -20.86663246154785,-10.835785865783691 C-20.86663246154785,-10.835785865783691 20.85936737060547,-10.835785865783691 20.85936737060547,-10.835785865783691 C20.85936737060547,-10.835785865783691 20.863000869750977,82.73200225830078 20.863000869750977,82.73200225830078"></path></g></g><g transform="matrix(1.0526354312896729,0,0,1.0526354312896729,231.09181213378906,476.7191467285156)" opacity="1" style="display: block;"><g opacity="1" transform="matrix(1,0,0,1,0,0)"><path stroke-linecap="round" stroke-linejoin="round" fill-opacity="0" stroke="#231F20" stroke-opacity="1" stroke-width="3px" d=" M-54.426998138427734,-72.54900360107422 C-54.426998138427734,-72.54900360107422 -54.314998626708984,30.21500015258789 -54.314998626708984,30.21500015258789 C-54.314998626708984,30.21500015258789 54.314998626708984,30.21500015258789 54.314998626708984,30.21500015258789"></path></g></g><g transform="matrix(1.03507661819458,0,0,1.0526299476623535,419.65301513671875,730.406982421875)" opacity="1" style="display: block;"><g opacity="1" transform="matrix(1,0,0,1,0,0)"><path fill="#231F20" fill-opacity="1" d=" M95.3219985961914,0 C95.3219985961914,-4.215000152587891 52.64500045776367,-7.631999969482422 0,-7.631999969482422 C-52.64500045776367,-7.631999969482422 -95.3219985961914,-4.215000152587891 -95.3219985961914,0 C-95.3219985961914,4.215000152587891 -52.64500045776367,7.631999969482422 0,7.631999969482422 C52.64500045776367,7.631999969482422 95.3219985961914,4.215000152587891 95.3219985961914,0z"></path><path stroke-linecap="round" stroke-linejoin="round" fill-opacity="0" stroke="#231F20" stroke-opacity="1" stroke-width="3px" d=" M95.3219985961914,0 C95.3219985961914,-4.215000152587891 52.64500045776367,-7.631999969482422 0,-7.631999969482422 C-52.64500045776367,-7.631999969482422 -95.3219985961914,-4.215000152587891 -95.3219985961914,0 C-95.3219985961914,4.215000152587891 -52.64500045776367,7.631999969482422 0,7.631999969482422 C52.64500045776367,7.631999969482422 95.3219985961914,4.215000152587891 95.3219985961914,0z"></path></g></g><g transform="matrix(1.0526248216629028,0,0,1.0526248216629028,643.70654296875,307.3163146972656)" opacity="1" style="display: block;"><g opacity="1" transform="matrix(1,0,0,1,0,0)"><path fill="#7248EE" fill-opacity="1" d=" M-69.52400207519531,10.604999542236328 C-69.52400207519531,10.604999542236328 -69.52400207519531,48.37900161743164 -69.52400207519531,48.37900161743164 C-69.52400207519531,54.20000076293945 -64.80500030517578,58.91899871826172 -58.98400115966797,58.91899871826172 C-58.98400115966797,58.91899871826172 -58.98400115966797,58.91899871826172 -58.98400115966797,58.91899871826172 C-53.16299819946289,58.91899871826172 -48.444000244140625,54.20000076293945 -48.444000244140625,48.37900161743164 C-48.444000244140625,48.37900161743164 -48.444000244140625,10.604999542236328 -48.444000244140625,10.604999542236328 C-48.444000244140625,-16.149999618530273 -26.7549991607666,-37.8390007019043 0,-37.8390007019043 C0,-37.8390007019043 0,-37.8390007019043 0,-37.8390007019043 C26.7549991607666,-37.8390007019043 48.444000244140625,-16.149999618530273 48.444000244140625,10.604999542236328 C48.444000244140625,10.604999542236328 48.444000244140625,48.37900161743164 48.444000244140625,48.37900161743164 C48.444000244140625,54.20000076293945 53.16299819946289,58.91899871826172 58.98400115966797,58.91899871826172 C58.98400115966797,58.91899871826172 58.98400115966797,58.91899871826172 58.98400115966797,58.91899871826172 C64.80500030517578,58.91899871826172 69.52400207519531,54.20000076293945 69.52400207519531,48.37900161743164 C69.52400207519531,48.37900161743164 69.52400207519531,10.604999542236328 69.52400207519531,10.604999542236328 C69.52400207519531,-27.79199981689453 38.39699935913086,-58.91899871826172 0,-58.91899871826172 C0,-58.91899871826172 0,-58.91899871826172 0,-58.91899871826172 C-38.39699935913086,-58.91899871826172 -69.52400207519531,-27.79199981689453 -69.52400207519531,10.604999542236328z"></path><path stroke-linecap="round" stroke-linejoin="round" fill-opacity="0" stroke="#231F20" stroke-opacity="1" stroke-width="3px" d=" M-69.52400207519531,10.604999542236328 C-69.52400207519531,10.604999542236328 -69.52400207519531,48.37900161743164 -69.52400207519531,48.37900161743164 C-69.52400207519531,54.20000076293945 -64.80500030517578,58.91899871826172 -58.98400115966797,58.91899871826172 C-58.98400115966797,58.91899871826172 -58.98400115966797,58.91899871826172 -58.98400115966797,58.91899871826172 C-53.16299819946289,58.91899871826172 -48.444000244140625,54.20000076293945 -48.444000244140625,48.37900161743164 C-48.444000244140625,48.37900161743164 -48.444000244140625,10.604999542236328 -48.444000244140625,10.604999542236328 C-48.444000244140625,-16.149999618530273 -26.7549991607666,-37.8390007019043 0,-37.8390007019043 C0,-37.8390007019043 0,-37.8390007019043 0,-37.8390007019043 C26.7549991607666,-37.8390007019043 48.444000244140625,-16.149999618530273 48.444000244140625,10.604999542236328 C48.444000244140625,10.604999542236328 48.444000244140625,48.37900161743164 48.444000244140625,48.37900161743164 C48.444000244140625,54.20000076293945 53.16299819946289,58.91899871826172 58.98400115966797,58.91899871826172 C58.98400115966797,58.91899871826172 58.98400115966797,58.91899871826172 58.98400115966797,58.91899871826172 C64.80500030517578,58.91899871826172 69.52400207519531,54.20000076293945 69.52400207519531,48.37900161743164 C69.52400207519531,48.37900161743164 69.52400207519531,10.604999542236328 69.52400207519531,10.604999542236328 C69.52400207519531,-27.79199981689453 38.39699935913086,-58.91899871826172 0,-58.91899871826172 C0,-58.91899871826172 0,-58.91899871826172 0,-58.91899871826172 C-38.39699935913086,-58.91899871826172 -69.52400207519531,-27.79199981689453 -69.52400207519531,10.604999542236328z"></path></g></g><g mask="url(#__lottie_element_8900_1)" style="display: block;"><g transform="matrix(1.0526248216629028,0,0,1.0526248216629028,581.6185302734375,354.1434020996094)" opacity="1"><g opacity="1" transform="matrix(1,0,0,1,0,0)"><path fill="#231F20" fill-opacity="1" d=" M-0.949999988079071,46.731998443603516 C-65.19499969482422,47.625999450683594 -64.69000244140625,-9.99899959564209 -64.69000244140625,-15.819999694824219 C-64.69000244140625,-15.819999694824219 -10.539999961853027,-14.432000160217285 -10.539999961853027,-14.432000160217285 C-10.539999961853027,-14.432000160217285 10.539999961853027,-14.432000160217285 10.539999961853027,-14.432000160217285 C10.539999961853027,-14.432000160217285 73.23999786376953,-14.157999992370605 73.23999786376953,-14.157999992370605 C73.23999786376953,-8.336999893188477 70.66300201416016,45.736000061035156 -0.949999988079071,46.731998443603516z"></path><path stroke-linecap="round" stroke-linejoin="round" fill-opacity="0" stroke="#231F20" stroke-opacity="1" stroke-width="3px" d=" M-0.949999988079071,46.731998443603516 C-65.19499969482422,47.625999450683594 -64.69000244140625,-9.99899959564209 -64.69000244140625,-15.819999694824219 C-64.69000244140625,-15.819999694824219 -10.539999961853027,-14.432000160217285 -10.539999961853027,-14.432000160217285 C-10.539999961853027,-14.432000160217285 10.539999961853027,-14.432000160217285 10.539999961853027,-14.432000160217285 C10.539999961853027,-14.432000160217285 73.23999786376953,-14.157999992370605 73.23999786376953,-14.157999992370605 C73.23999786376953,-8.336999893188477 70.66300201416016,45.736000061035156 -0.949999988079071,46.731998443603516z"></path></g></g></g><g transform="matrix(1.0526248216629028,0,0,1.0526248216629028,705.7945556640625,354.1444396972656)" opacity="1" style="display: block;"><g opacity="1" transform="matrix(1,0,0,1,0,0)"><path fill="#231F20" fill-opacity="1" d=" M0,14.432000160217285 C0,14.432000160217285 0,14.432000160217285 0,14.432000160217285 C-5.821000099182129,14.432000160217285 -10.539999961853027,9.713000297546387 -10.539999961853027,3.8919999599456787 C-10.539999961853027,3.8919999599456787 -10.539999961853027,-14.432000160217285 -10.539999961853027,-14.432000160217285 C-10.539999961853027,-14.432000160217285 10.539999961853027,-14.432000160217285 10.539999961853027,-14.432000160217285 C10.539999961853027,-14.432000160217285 10.539999961853027,3.8919999599456787 10.539999961853027,3.8919999599456787 C10.539999961853027,9.713000297546387 5.821000099182129,14.432000160217285 0,14.432000160217285z"></path><path stroke-linecap="round" stroke-linejoin="round" fill-opacity="0" stroke="#231F20" stroke-opacity="1" stroke-width="3px" d=" M0,14.432000160217285 C0,14.432000160217285 0,14.432000160217285 0,14.432000160217285 C-5.821000099182129,14.432000160217285 -10.539999961853027,9.713000297546387 -10.539999961853027,3.8919999599456787 C-10.539999961853027,3.8919999599456787 -10.539999961853027,-14.432000160217285 -10.539999961853027,-14.432000160217285 C-10.539999961853027,-14.432000160217285 10.539999961853027,-14.432000160217285 10.539999961853027,-14.432000160217285 C10.539999961853027,-14.432000160217285 10.539999961853027,3.8919999599456787 10.539999961853027,3.8919999599456787 C10.539999961853027,9.713000297546387 5.821000099182129,14.432000160217285 0,14.432000160217285z"></path></g></g><g transform="matrix(1.0526248216629028,0,0,1.0526248216629028,0.0003701530513353646,-8.912896156311035)" opacity="1" style="display: block;"><g opacity="1" transform="matrix(1,0,0,1,165.2220001220703,328.7850036621094)"><path fill="#7248EE" fill-opacity="1" d=" M-61.150001525878906,-93.88300323486328 C-61.150001525878906,-93.88300323486328 -61.150001525878906,83.09200286865234 -61.150001525878906,83.09200286865234 C-61.150001525878906,89.052001953125 -33.77199935913086,93.88300323486328 0,93.88300323486328 C33.77199935913086,93.88300323486328 61.150001525878906,89.052001953125 61.150001525878906,83.09200286865234 C61.150001525878906,83.09200286865234 61.150001525878906,-93.88300323486328 61.150001525878906,-93.88300323486328 C61.150001525878906,-93.88300323486328 -61.150001525878906,-93.88300323486328 -61.150001525878906,-93.88300323486328z"></path><path stroke-linecap="round" stroke-linejoin="round" fill-opacity="0" stroke="#231F20" stroke-opacity="1" stroke-width="3px" d=" M-61.150001525878906,-93.88300323486328 C-61.150001525878906,-93.88300323486328 -61.150001525878906,83.09200286865234 -61.150001525878906,83.09200286865234 C-61.150001525878906,89.052001953125 -33.77199935913086,93.88300323486328 0,93.88300323486328 C33.77199935913086,93.88300323486328 61.150001525878906,89.052001953125 61.150001525878906,83.09200286865234 C61.150001525878906,83.09200286865234 61.150001525878906,-93.88300323486328 61.150001525878906,-93.88300323486328 C61.150001525878906,-93.88300323486328 -61.150001525878906,-93.88300323486328 -61.150001525878906,-93.88300323486328z"></path></g><g opacity="1" transform="matrix(1,0,0,1,165.2220001220703,299.28900146484375)"><path stroke-linecap="round" stroke-linejoin="round" fill-opacity="0" stroke="#231F20" stroke-opacity="1" stroke-width="3px" d=" M61.150001525878906,-5.395999908447266 C61.150001525878906,0.5640000104904175 33.77199935913086,5.395999908447266 0,5.395999908447266 C-33.77199935913086,5.395999908447266 -61.150001525878906,0.5640000104904175 -61.150001525878906,-5.395999908447266"></path></g><g opacity="1" transform="matrix(1,0,0,1,165.2220001220703,358.281005859375)"><path stroke-linecap="round" stroke-linejoin="round" fill-opacity="0" stroke="#231F20" stroke-opacity="1" stroke-width="3px" d=" M61.150001525878906,-5.395999908447266 C61.150001525878906,0.5640000104904175 33.77199935913086,5.395999908447266 0,5.395999908447266 C-33.77199935913086,5.395999908447266 -61.150001525878906,0.5640000104904175 -61.150001525878906,-5.395999908447266"></path></g><g opacity="1" transform="matrix(1,0,0,1,165.2220001220703,234.90199279785156)"><path fill="#7248EE" fill-opacity="1" d=" M61.150001525878906,0 C61.150001525878906,5.960000038146973 33.77199935913086,10.791000366210938 0,10.791000366210938 C-33.77199935913086,10.791000366210938 -61.150001525878906,5.960000038146973 -61.150001525878906,0 C-61.150001525878906,-5.960000038146973 -33.77199935913086,-10.791000366210938 0,-10.791000366210938 C33.77199935913086,-10.791000366210938 61.150001525878906,-5.960000038146973 61.150001525878906,0z"></path><path stroke-linecap="round" stroke-linejoin="round" fill-opacity="0" stroke="#231F20" stroke-opacity="1" stroke-width="3px" d=" M61.150001525878906,0 C61.150001525878906,5.960000038146973 33.77199935913086,10.791000366210938 0,10.791000366210938 C-33.77199935913086,10.791000366210938 -61.150001525878906,5.960000038146973 -61.150001525878906,0 C-61.150001525878906,-5.960000038146973 -33.77199935913086,-10.791000366210938 0,-10.791000366210938 C33.77199935913086,-10.791000366210938 61.150001525878906,-5.960000038146973 61.150001525878906,0z"></path></g></g><g transform="matrix(1.0526248216629028,0,0,1.0526248216629028,643.70654296875,394.7631530761719)" opacity="1" style="display: block;"><g opacity="1" transform="matrix(1,0,0,1,0,0)"><path fill="#C3ACF1" fill-opacity="1" d=" M29.371999740600586,47.33100128173828 C29.371999740600586,47.33100128173828 -29.371999740600586,47.33100128173828 -29.371999740600586,47.33100128173828 C-51.547000885009766,47.33100128173828 -69.52400207519531,29.354000091552734 -69.52400207519531,7.178999900817871 C-69.52400207519531,7.178999900817871 -69.52400207519531,-47.33100128173828 -69.52400207519531,-47.33100128173828 C-69.52400207519531,-47.33100128173828 69.52400207519531,-47.33100128173828 69.52400207519531,-47.33100128173828 C69.52400207519531,-47.33100128173828 69.52400207519531,7.178999900817871 69.52400207519531,7.178999900817871 C69.52400207519531,29.354000091552734 51.547000885009766,47.33100128173828 29.371999740600586,47.33100128173828z"></path><path stroke-linecap="round" stroke-linejoin="round" fill-opacity="0" stroke="#231F20" stroke-opacity="1" stroke-width="3px" d=" M29.371999740600586,47.33100128173828 C29.371999740600586,47.33100128173828 -29.371999740600586,47.33100128173828 -29.371999740600586,47.33100128173828 C-51.547000885009766,47.33100128173828 -69.52400207519531,29.354000091552734 -69.52400207519531,7.178999900817871 C-69.52400207519531,7.178999900817871 -69.52400207519531,-47.33100128173828 -69.52400207519531,-47.33100128173828 C-69.52400207519531,-47.33100128173828 69.52400207519531,-47.33100128173828 69.52400207519531,-47.33100128173828 C69.52400207519531,-47.33100128173828 69.52400207519531,7.178999900817871 69.52400207519531,7.178999900817871 C69.52400207519531,29.354000091552734 51.547000885009766,47.33100128173828 29.371999740600586,47.33100128173828z"></path></g></g><g transform="matrix(1.0526248216629028,0,0,1.0526248216629028,0.004340657033026218,12.239251136779785)" opacity="1" style="display: block;"><g opacity="1" transform="matrix(1,0,0,1,611.52099609375,370.6669921875)"><path fill="#231F20" fill-opacity="1" d=" M0,16.496999740600586 C0,16.496999740600586 0,16.496999740600586 0,16.496999740600586 C-2.7119998931884766,16.496999740600586 -4.909999847412109,14.298999786376953 -4.909999847412109,11.586999893188477 C-4.909999847412109,11.586999893188477 -4.909999847412109,-11.586999893188477 -4.909999847412109,-11.586999893188477 C-4.909999847412109,-14.298999786376953 -2.7119998931884766,-16.496999740600586 0,-16.496999740600586 C0,-16.496999740600586 0,-16.496999740600586 0,-16.496999740600586 C2.7119998931884766,-16.496999740600586 4.909999847412109,-14.298999786376953 4.909999847412109,-11.586999893188477 C4.909999847412109,-11.586999893188477 4.909999847412109,11.586999893188477 4.909999847412109,11.586999893188477 C4.909999847412109,14.298999786376953 2.7119998931884766,16.496999740600586 0,16.496999740600586z"></path><path stroke-linecap="round" stroke-linejoin="round" fill-opacity="0" stroke="#231F20" stroke-opacity="1" stroke-width="3px" d=" M0,16.496999740600586 C0,16.496999740600586 0,16.496999740600586 0,16.496999740600586 C-2.7119998931884766,16.496999740600586 -4.909999847412109,14.298999786376953 -4.909999847412109,11.586999893188477 C-4.909999847412109,11.586999893188477 -4.909999847412109,-11.586999893188477 -4.909999847412109,-11.586999893188477 C-4.909999847412109,-14.298999786376953 -2.7119998931884766,-16.496999740600586 0,-16.496999740600586 C0,-16.496999740600586 0,-16.496999740600586 0,-16.496999740600586 C2.7119998931884766,-16.496999740600586 4.909999847412109,-14.298999786376953 4.909999847412109,-11.586999893188477 C4.909999847412109,-11.586999893188477 4.909999847412109,11.586999893188477 4.909999847412109,11.586999893188477 C4.909999847412109,14.298999786376953 2.7119998931884766,16.496999740600586 0,16.496999740600586z"></path></g><g opacity="1" transform="matrix(1,0,0,1,611.52099609375,356.72198486328125)"><path fill="#231F20" fill-opacity="1" d=" M12.961999893188477,0 C12.961999893188477,-7.158999919891357 7.158999919891357,-12.961999893188477 0,-12.961999893188477 C-7.158999919891357,-12.961999893188477 -12.961999893188477,-7.158999919891357 -12.961999893188477,0 C-12.961999893188477,7.158999919891357 -7.158999919891357,12.961999893188477 0,12.961999893188477 C7.158999919891357,12.961999893188477 12.961999893188477,7.158999919891357 12.961999893188477,0z"></path><path stroke-linecap="round" stroke-linejoin="round" fill-opacity="0" stroke="#231F20" stroke-opacity="1" stroke-width="3px" d=" M12.961999893188477,0 C12.961999893188477,-7.158999919891357 7.158999919891357,-12.961999893188477 0,-12.961999893188477 C-7.158999919891357,-12.961999893188477 -12.961999893188477,-7.158999919891357 -12.961999893188477,0 C-12.961999893188477,7.158999919891357 -7.158999919891357,12.961999893188477 0,12.961999893188477 C7.158999919891357,12.961999893188477 12.961999893188477,7.158999919891357 12.961999893188477,0z"></path></g></g><g transform="matrix(0.47378525137901306,0,0,0.47378525137901306,128.8595733642578,399.27081298828125)" opacity="1" style="display: block;"><g opacity="1" transform="matrix(1,0,0,1,0,0)"><path fill="#CAE062" fill-opacity="1" d=" M5.156000137329102,0 C5.156000137329102,2.8469998836517334 2.8469998836517334,5.156000137329102 0,5.156000137329102 C-2.8469998836517334,5.156000137329102 -5.156000137329102,2.8469998836517334 -5.156000137329102,0 C-5.156000137329102,-2.8469998836517334 -2.8469998836517334,-5.156000137329102 0,-5.156000137329102 C2.8469998836517334,-5.156000137329102 5.156000137329102,-2.8469998836517334 5.156000137329102,0z"></path><path stroke-linecap="round" stroke-linejoin="round" fill-opacity="0" stroke="#231F20" stroke-opacity="1" stroke-width="3px" d=" M5.156000137329102,0 C5.156000137329102,2.8469998836517334 2.8469998836517334,5.156000137329102 0,5.156000137329102 C-2.8469998836517334,5.156000137329102 -5.156000137329102,2.8469998836517334 -5.156000137329102,0 C-5.156000137329102,-2.8469998836517334 -2.8469998836517334,-5.156000137329102 0,-5.156000137329102 C2.8469998836517334,-5.156000137329102 5.156000137329102,-2.8469998836517334 5.156000137329102,0z"></path></g></g><g transform="matrix(1.0391923189163208,0,0,1.0391923189163208,128.8595733642578,337.1743469238281)" opacity="1" style="display: block;"><g opacity="1" transform="matrix(1,0,0,1,0,0)"><path fill="#CAE062" fill-opacity="1" d=" M5.156000137329102,0 C5.156000137329102,2.8469998836517334 2.8469998836517334,5.156000137329102 0,5.156000137329102 C-2.8469998836517334,5.156000137329102 -5.156000137329102,2.8469998836517334 -5.156000137329102,0 C-5.156000137329102,-2.8469998836517334 -2.8469998836517334,-5.156000137329102 0,-5.156000137329102 C2.8469998836517334,-5.156000137329102 5.156000137329102,-2.8469998836517334 5.156000137329102,0z"></path><path stroke-linecap="round" stroke-linejoin="round" fill-opacity="0" stroke="#231F20" stroke-opacity="1" stroke-width="3px" d=" M5.156000137329102,0 C5.156000137329102,2.8469998836517334 2.8469998836517334,5.156000137329102 0,5.156000137329102 C-2.8469998836517334,5.156000137329102 -5.156000137329102,2.8469998836517334 -5.156000137329102,0 C-5.156000137329102,-2.8469998836517334 -2.8469998836517334,-5.156000137329102 0,-5.156000137329102 C2.8469998836517334,-5.156000137329102 5.156000137329102,-2.8469998836517334 5.156000137329102,0z"></path></g></g><g transform="matrix(1.0526248216629028,0,0,1.0526248216629028,128.8595733642578,275.0789489746094)" opacity="1" style="display: block;"><g opacity="1" transform="matrix(1,0,0,1,0,0)"><path fill="#CAE062" fill-opacity="1" d=" M5.156000137329102,0 C5.156000137329102,2.8469998836517334 2.8469998836517334,5.156000137329102 0,5.156000137329102 C-2.8469998836517334,5.156000137329102 -5.156000137329102,2.8469998836517334 -5.156000137329102,0 C-5.156000137329102,-2.8469998836517334 -2.8469998836517334,-5.156000137329102 0,-5.156000137329102 C2.8469998836517334,-5.156000137329102 5.156000137329102,-2.8469998836517334 5.156000137329102,0z"></path><path stroke-linecap="round" stroke-linejoin="round" fill-opacity="0" stroke="#231F20" stroke-opacity="1" stroke-width="3px" d=" M5.156000137329102,0 C5.156000137329102,2.8469998836517334 2.8469998836517334,5.156000137329102 0,5.156000137329102 C-2.8469998836517334,5.156000137329102 -5.156000137329102,2.8469998836517334 -5.156000137329102,0 C-5.156000137329102,-2.8469998836517334 -2.8469998836517334,-5.156000137329102 0,-5.156000137329102 C2.8469998836517334,-5.156000137329102 5.156000137329102,-2.8469998836517334 5.156000137329102,0z"></path></g></g><g transform="matrix(1.0526248216629028,0,0,1.0526248216629028,539.681640625,188.71798706054688)" opacity="1" style="display: block;"><g opacity="1" transform="matrix(1,0,0,1,0,0)"><path fill="#FFFFFF" fill-opacity="1" d=" M61.150001525878906,78.41600036621094 C61.150001525878906,78.41600036621094 -61.150001525878906,78.41600036621094 -61.150001525878906,78.41600036621094 C-61.150001525878906,78.41600036621094 -61.150001525878906,-78.41600036621094 -61.150001525878906,-78.41600036621094 C-61.150001525878906,-78.41600036621094 29.496000289916992,-78.41600036621094 29.496000289916992,-78.41600036621094 C29.496000289916992,-78.41600036621094 61.150001525878906,-46.762001037597656 61.150001525878906,-46.762001037597656 C61.150001525878906,-46.762001037597656 61.150001525878906,78.41600036621094 61.150001525878906,78.41600036621094z"></path><path stroke-linecap="round" stroke-linejoin="round" fill-opacity="0" stroke="#231F20" stroke-opacity="1" stroke-width="3px" d=" M61.150001525878906,78.41600036621094 C61.150001525878906,78.41600036621094 -61.150001525878906,78.41600036621094 -61.150001525878906,78.41600036621094 C-61.150001525878906,78.41600036621094 -61.150001525878906,-78.41600036621094 -61.150001525878906,-78.41600036621094 C-61.150001525878906,-78.41600036621094 29.496000289916992,-78.41600036621094 29.496000289916992,-78.41600036621094 C29.496000289916992,-78.41600036621094 61.150001525878906,-46.762001037597656 61.150001525878906,-46.762001037597656 C61.150001525878906,-46.762001037597656 61.150001525878906,78.41600036621094 61.150001525878906,78.41600036621094z"></path></g></g><g transform="matrix(1.0526248216629028,0,0,1.0526248216629028,0.003993719816207886,11.122267723083496)" opacity="1" style="display: block;"><g opacity="1" transform="matrix(1,0,0,1,561.02001953125,112.39900207519531)"><path fill="#231F20" fill-opacity="1" d=" M-12.82699966430664,16.077999114990234 C-12.82699966430664,16.077999114990234 12.82699966430664,9.555999755859375 12.82699966430664,9.555999755859375 C12.82699966430664,9.555999755859375 -12.82699966430664,-16.077999114990234 -12.82699966430664,-16.077999114990234 C-12.82699966430664,-16.077999114990234 -12.82699966430664,16.077999114990234 -12.82699966430664,16.077999114990234z"></path><path stroke-linecap="round" stroke-linejoin="round" fill-opacity="0" stroke="#231F20" stroke-opacity="1" stroke-width="3px" d=" M-12.82699966430664,16.077999114990234 C-12.82699966430664,16.077999114990234 12.82699966430664,9.555999755859375 12.82699966430664,9.555999755859375 C12.82699966430664,9.555999755859375 -12.82699966430664,-16.077999114990234 -12.82699966430664,-16.077999114990234 C-12.82699966430664,-16.077999114990234 -12.82699966430664,16.077999114990234 -12.82699966430664,16.077999114990234z"></path></g><g opacity="1" transform="matrix(1,0,0,1,558.02001953125,106.12799835205078)"><path fill="#7248EE" fill-opacity="1" d=" M-15.82699966430664,15.82699966430664 C-15.82699966430664,15.82699966430664 15.82699966430664,15.82699966430664 15.82699966430664,15.82699966430664 C15.82699966430664,15.82699966430664 -15.82699966430664,-15.82699966430664 -15.82699966430664,-15.82699966430664 C-15.82699966430664,-15.82699966430664 -15.82699966430664,15.82699966430664 -15.82699966430664,15.82699966430664z"></path><path stroke-linecap="round" stroke-linejoin="round" fill-opacity="0" stroke="#231F20" stroke-opacity="1" stroke-width="3px" d=" M-15.82699966430664,15.82699966430664 C-15.82699966430664,15.82699966430664 15.82699966430664,15.82699966430664 15.82699966430664,15.82699966430664 C15.82699966430664,15.82699966430664 -15.82699966430664,-15.82699966430664 -15.82699966430664,-15.82699966430664 C-15.82699966430664,-15.82699966430664 -15.82699966430664,15.82699966430664 -15.82699966430664,15.82699966430664z"></path></g></g><g transform="matrix(1.0526248216629028,0,0,1.0526248216629028,263.2757568359375,210.7707061767578)" opacity="1" style="display: block;"><g opacity="1" transform="matrix(1,0,0,1,0,0)"><path fill="#EE4878" fill-opacity="1" d=" M43.72999954223633,55.492000579833984 C43.72999954223633,55.492000579833984 -43.72999954223633,55.492000579833984 -43.72999954223633,55.492000579833984 C-61.23099899291992,55.492000579833984 -75.41799926757812,41.30500030517578 -75.41799926757812,23.804000854492188 C-75.41799926757812,23.804000854492188 -75.41799926757812,-23.804000854492188 -75.41799926757812,-23.804000854492188 C-75.41799926757812,-41.30500030517578 -61.23099899291992,-55.492000579833984 -43.72999954223633,-55.492000579833984 C-43.72999954223633,-55.492000579833984 43.72999954223633,-55.492000579833984 43.72999954223633,-55.492000579833984 C61.23099899291992,-55.492000579833984 75.41799926757812,-41.30500030517578 75.41799926757812,-23.804000854492188 C75.41799926757812,-23.804000854492188 75.41799926757812,23.804000854492188 75.41799926757812,23.804000854492188 C75.41799926757812,41.30500030517578 61.23099899291992,55.492000579833984 43.72999954223633,55.492000579833984z"></path><path stroke-linecap="round" stroke-linejoin="round" fill-opacity="0" stroke="#231F20" stroke-opacity="1" stroke-width="3px" d=" M43.72999954223633,55.492000579833984 C43.72999954223633,55.492000579833984 -43.72999954223633,55.492000579833984 -43.72999954223633,55.492000579833984 C-61.23099899291992,55.492000579833984 -75.41799926757812,41.30500030517578 -75.41799926757812,23.804000854492188 C-75.41799926757812,23.804000854492188 -75.41799926757812,-23.804000854492188 -75.41799926757812,-23.804000854492188 C-75.41799926757812,-41.30500030517578 -61.23099899291992,-55.492000579833984 -43.72999954223633,-55.492000579833984 C-43.72999954223633,-55.492000579833984 43.72999954223633,-55.492000579833984 43.72999954223633,-55.492000579833984 C61.23099899291992,-55.492000579833984 75.41799926757812,-41.30500030517578 75.41799926757812,-23.804000854492188 C75.41799926757812,-23.804000854492188 75.41799926757812,23.804000854492188 75.41799926757812,23.804000854492188 C75.41799926757812,41.30500030517578 61.23099899291992,55.492000579833984 43.72999954223633,55.492000579833984z"></path></g></g><g transform="matrix(1.0526328086853027,0,0,1.0526328086853027,265.9578552246094,210.7707061767578)" opacity="1" style="display: block;"><g opacity="1" transform="matrix(1,0,0,1,0,0)"><path fill="#FFFFFF" fill-opacity="1" d=" M21.882999420166016,-8.576000213623047 C21.882999420166016,-8.576000213623047 -11.979999542236328,-28.12700080871582 -11.979999542236328,-28.12700080871582 C-18.582000732421875,-31.93899917602539 -26.833999633789062,-27.173999786376953 -26.833999633789062,-19.551000595092773 C-26.833999633789062,-19.551000595092773 -26.833999633789062,19.551000595092773 -26.833999633789062,19.551000595092773 C-26.833999633789062,27.173999786376953 -18.582000732421875,31.93899917602539 -11.979999542236328,28.12700080871582 C-11.979999542236328,28.12700080871582 21.882999420166016,8.576000213623047 21.882999420166016,8.576000213623047 C28.485000610351562,4.763999938964844 28.485000610351562,-4.763999938964844 21.882999420166016,-8.576000213623047z"></path><path stroke-linecap="round" stroke-linejoin="round" fill-opacity="0" stroke="#231F20" stroke-opacity="1" stroke-width="3px" d=" M21.882999420166016,-8.576000213623047 C21.882999420166016,-8.576000213623047 -11.979999542236328,-28.12700080871582 -11.979999542236328,-28.12700080871582 C-18.582000732421875,-31.93899917602539 -26.833999633789062,-27.173999786376953 -26.833999633789062,-19.551000595092773 C-26.833999633789062,-19.551000595092773 -26.833999633789062,19.551000595092773 -26.833999633789062,19.551000595092773 C-26.833999633789062,27.173999786376953 -18.582000732421875,31.93899917602539 -11.979999542236328,28.12700080871582 C-11.979999542236328,28.12700080871582 21.882999420166016,8.576000213623047 21.882999420166016,8.576000213623047 C28.485000610351562,4.763999938964844 28.485000610351562,-4.763999938964844 21.882999420166016,-8.576000213623047z"></path></g></g><g transform="matrix(1.0526248216629028,0,0,1.0526248216629028,0.0031071025878190994,8.167903900146484)" opacity="1" style="display: block;"><g opacity="1" transform="matrix(1,0,0,1,394.35400390625,215.43800354003906)"><path fill="#CAE062" fill-opacity="1" d=" M103.83499908447266,13.409000396728516 C103.83499908447266,13.409000396728516 103.83499908447266,-13.409000396728516 103.83499908447266,-13.409000396728516 C103.83499908447266,-17.66699981689453 100.38300323486328,-21.118999481201172 96.125,-21.118999481201172 C96.125,-21.118999481201172 78.6719970703125,-21.118999481201172 78.6719970703125,-21.118999481201172 C76.9990005493164,-21.118999481201172 75.51300048828125,-22.197999954223633 75.00800323486328,-23.792999267578125 C73.64199829101562,-28.104999542236328 71.91600036621094,-32.255001068115234 69.86199951171875,-36.209999084472656 C69.08999633789062,-37.69599914550781 69.3759994506836,-39.5099983215332 70.55999755859375,-40.694000244140625 C70.55999755859375,-40.694000244140625 82.90399932861328,-53.0369987487793 82.90399932861328,-53.0369987487793 C85.91500091552734,-56.04800033569336 85.91500091552734,-60.93000030517578 82.90399932861328,-63.941001892089844 C82.90399932861328,-63.941001892089844 63.941001892089844,-82.90399932861328 63.941001892089844,-82.90399932861328 C60.93000030517578,-85.91500091552734 56.04800033569336,-85.91500091552734 53.0369987487793,-82.90399932861328 C53.0369987487793,-82.90399932861328 40.694000244140625,-70.55999755859375 40.694000244140625,-70.55999755859375 C39.5099983215332,-69.3759994506836 37.69599914550781,-69.08999633789062 36.209999084472656,-69.86199951171875 C32.255001068115234,-71.91600036621094 28.104999542236328,-73.64199829101562 23.792999267578125,-75.00800323486328 C22.197999954223633,-75.51300048828125 21.118999481201172,-76.9990005493164 21.118999481201172,-78.6719970703125 C21.118999481201172,-78.6719970703125 21.118999481201172,-96.125 21.118999481201172,-96.125 C21.118999481201172,-100.38300323486328 17.66699981689453,-103.83499908447266 13.409000396728516,-103.83499908447266 C13.409000396728516,-103.83499908447266 -13.409000396728516,-103.83499908447266 -13.409000396728516,-103.83499908447266 C-17.66699981689453,-103.83499908447266 -21.118999481201172,-100.38300323486328 -21.118999481201172,-96.125 C-21.118999481201172,-96.125 -21.118999481201172,-78.6719970703125 -21.118999481201172,-78.6719970703125 C-21.118999481201172,-76.9990005493164 -22.197999954223633,-75.51300048828125 -23.792999267578125,-75.00800323486328 C-28.104999542236328,-73.64199829101562 -32.255001068115234,-71.91600036621094 -36.209999084472656,-69.86199951171875 C-37.69599914550781,-69.08999633789062 -39.5099983215332,-69.3759994506836 -40.694000244140625,-70.55999755859375 C-40.694000244140625,-70.55999755859375 -53.0369987487793,-82.90399932861328 -53.0369987487793,-82.90399932861328 C-56.04800033569336,-85.91500091552734 -60.93000030517578,-85.91500091552734 -63.941001892089844,-82.90399932861328 C-63.941001892089844,-82.90399932861328 -82.90399932861328,-63.941001892089844 -82.90399932861328,-63.941001892089844 C-85.91500091552734,-60.93000030517578 -85.91500091552734,-56.04800033569336 -82.90399932861328,-53.0369987487793 C-82.90399932861328,-53.0369987487793 -70.55999755859375,-40.694000244140625 -70.55999755859375,-40.694000244140625 C-69.3759994506836,-39.5099983215332 -69.08999633789062,-37.69599914550781 -69.86199951171875,-36.209999084472656 C-71.91600036621094,-32.255001068115234 -73.64199829101562,-28.104999542236328 -75.00800323486328,-23.792999267578125 C-75.51300048828125,-22.197999954223633 -76.9990005493164,-21.118999481201172 -78.6719970703125,-21.118999481201172 C-78.6719970703125,-21.118999481201172 -96.125,-21.118999481201172 -96.125,-21.118999481201172 C-100.38300323486328,-21.118999481201172 -103.83499908447266,-17.66699981689453 -103.83499908447266,-13.409000396728516 C-103.83499908447266,-13.409000396728516 -103.83499908447266,13.409000396728516 -103.83499908447266,13.409000396728516 C-103.83499908447266,17.66699981689453 -100.38300323486328,21.118999481201172 -96.125,21.118999481201172 C-96.125,21.118999481201172 -78.6719970703125,21.118999481201172 -78.6719970703125,21.118999481201172 C-76.9990005493164,21.118999481201172 -75.51300048828125,22.197999954223633 -75.00800323486328,23.792999267578125 C-73.64199829101562,28.104999542236328 -71.91600036621094,32.255001068115234 -69.86199951171875,36.209999084472656 C-69.08999633789062,37.69599914550781 -69.3759994506836,39.5099983215332 -70.55999755859375,40.694000244140625 C-70.55999755859375,40.694000244140625 -82.90399932861328,53.0369987487793 -82.90399932861328,53.0369987487793 C-85.91500091552734,56.04800033569336 -85.91500091552734,60.93000030517578 -82.90399932861328,63.941001892089844 C-82.90399932861328,63.941001892089844 -63.941001892089844,82.90399932861328 -63.941001892089844,82.90399932861328 C-60.93000030517578,85.91500091552734 -56.04800033569336,85.91500091552734 -53.0369987487793,82.90399932861328 C-53.0369987487793,82.90399932861328 -40.694000244140625,70.55999755859375 -40.694000244140625,70.55999755859375 C-39.5099983215332,69.3759994506836 -37.69599914550781,69.08999633789062 -36.209999084472656,69.86199951171875 C-32.255001068115234,71.91600036621094 -28.104999542236328,73.64199829101562 -23.792999267578125,75.00800323486328 C-22.197999954223633,75.51300048828125 -21.118999481201172,76.99800109863281 -21.118999481201172,78.6709976196289 C-21.118999481201172,78.6709976196289 -21.118999481201172,96.125 -21.118999481201172,96.125 C-21.118999481201172,100.38300323486328 -17.66699981689453,103.83499908447266 -13.409000396728516,103.83499908447266 C-13.409000396728516,103.83499908447266 13.409000396728516,103.83499908447266 13.409000396728516,103.83499908447266 C17.66699981689453,103.83499908447266 21.118999481201172,100.38300323486328 21.118999481201172,96.125 C21.118999481201172,96.125 21.118999481201172,78.6709976196289 21.118999481201172,78.6709976196289 C21.118999481201172,76.99800109863281 22.197999954223633,75.51300048828125 23.792999267578125,75.00800323486328 C28.104999542236328,73.64199829101562 32.255001068115234,71.91600036621094 36.209999084472656,69.86199951171875 C37.69599914550781,69.08999633789062 39.5099983215332,69.3759994506836 40.694000244140625,70.55999755859375 C40.694000244140625,70.55999755859375 53.0369987487793,82.90399932861328 53.0369987487793,82.90399932861328 C56.04800033569336,85.91500091552734 60.93000030517578,85.91500091552734 63.941001892089844,82.90399932861328 C63.941001892089844,82.90399932861328 82.90399932861328,63.941001892089844 82.90399932861328,63.941001892089844 C85.91500091552734,60.93000030517578 85.91500091552734,56.04800033569336 82.90399932861328,53.0369987487793 C82.90399932861328,53.0369987487793 70.55999755859375,40.694000244140625 70.55999755859375,40.694000244140625 C69.3759994506836,39.5099983215332 69.08999633789062,37.69599914550781 69.86199951171875,36.209999084472656 C71.91600036621094,32.255001068115234 73.64199829101562,28.104999542236328 75.00800323486328,23.792999267578125 C75.51300048828125,22.197999954223633 76.9990005493164,21.118999481201172 78.6719970703125,21.118999481201172 C78.6719970703125,21.118999481201172 96.125,21.118999481201172 96.125,21.118999481201172 C100.38300323486328,21.118999481201172 103.83499908447266,17.66699981689453 103.83499908447266,13.409000396728516z M0,37.9640007019043 C-20.966999053955078,37.9640007019043 -37.9640007019043,20.966999053955078 -37.9640007019043,0 C-37.9640007019043,-20.966999053955078 -20.966999053955078,-37.9640007019043 0,-37.9640007019043 C20.966999053955078,-37.9640007019043 37.9640007019043,-20.966999053955078 37.9640007019043,0 C37.9640007019043,20.966999053955078 20.966999053955078,37.9640007019043 0,37.9640007019043z"></path><path stroke-linecap="round" stroke-linejoin="round" fill-opacity="0" stroke="#231F20" stroke-opacity="1" stroke-width="3px" d=" M103.83499908447266,13.409000396728516 C103.83499908447266,13.409000396728516 103.83499908447266,-13.409000396728516 103.83499908447266,-13.409000396728516 C103.83499908447266,-17.66699981689453 100.38300323486328,-21.118999481201172 96.125,-21.118999481201172 C96.125,-21.118999481201172 78.6719970703125,-21.118999481201172 78.6719970703125,-21.118999481201172 C76.9990005493164,-21.118999481201172 75.51300048828125,-22.197999954223633 75.00800323486328,-23.792999267578125 C73.64199829101562,-28.104999542236328 71.91600036621094,-32.255001068115234 69.86199951171875,-36.209999084472656 C69.08999633789062,-37.69599914550781 69.3759994506836,-39.5099983215332 70.55999755859375,-40.694000244140625 C70.55999755859375,-40.694000244140625 82.90399932861328,-53.0369987487793 82.90399932861328,-53.0369987487793 C85.91500091552734,-56.04800033569336 85.91500091552734,-60.93000030517578 82.90399932861328,-63.941001892089844 C82.90399932861328,-63.941001892089844 63.941001892089844,-82.90399932861328 63.941001892089844,-82.90399932861328 C60.93000030517578,-85.91500091552734 56.04800033569336,-85.91500091552734 53.0369987487793,-82.90399932861328 C53.0369987487793,-82.90399932861328 40.694000244140625,-70.55999755859375 40.694000244140625,-70.55999755859375 C39.5099983215332,-69.3759994506836 37.69599914550781,-69.08999633789062 36.209999084472656,-69.86199951171875 C32.255001068115234,-71.91600036621094 28.104999542236328,-73.64199829101562 23.792999267578125,-75.00800323486328 C22.197999954223633,-75.51300048828125 21.118999481201172,-76.9990005493164 21.118999481201172,-78.6719970703125 C21.118999481201172,-78.6719970703125 21.118999481201172,-96.125 21.118999481201172,-96.125 C21.118999481201172,-100.38300323486328 17.66699981689453,-103.83499908447266 13.409000396728516,-103.83499908447266 C13.409000396728516,-103.83499908447266 -13.409000396728516,-103.83499908447266 -13.409000396728516,-103.83499908447266 C-17.66699981689453,-103.83499908447266 -21.118999481201172,-100.38300323486328 -21.118999481201172,-96.125 C-21.118999481201172,-96.125 -21.118999481201172,-78.6719970703125 -21.118999481201172,-78.6719970703125 C-21.118999481201172,-76.9990005493164 -22.197999954223633,-75.51300048828125 -23.792999267578125,-75.00800323486328 C-28.104999542236328,-73.64199829101562 -32.255001068115234,-71.91600036621094 -36.209999084472656,-69.86199951171875 C-37.69599914550781,-69.08999633789062 -39.5099983215332,-69.3759994506836 -40.694000244140625,-70.55999755859375 C-40.694000244140625,-70.55999755859375 -53.0369987487793,-82.90399932861328 -53.0369987487793,-82.90399932861328 C-56.04800033569336,-85.91500091552734 -60.93000030517578,-85.91500091552734 -63.941001892089844,-82.90399932861328 C-63.941001892089844,-82.90399932861328 -82.90399932861328,-63.941001892089844 -82.90399932861328,-63.941001892089844 C-85.91500091552734,-60.93000030517578 -85.91500091552734,-56.04800033569336 -82.90399932861328,-53.0369987487793 C-82.90399932861328,-53.0369987487793 -70.55999755859375,-40.694000244140625 -70.55999755859375,-40.694000244140625 C-69.3759994506836,-39.5099983215332 -69.08999633789062,-37.69599914550781 -69.86199951171875,-36.209999084472656 C-71.91600036621094,-32.255001068115234 -73.64199829101562,-28.104999542236328 -75.00800323486328,-23.792999267578125 C-75.51300048828125,-22.197999954223633 -76.9990005493164,-21.118999481201172 -78.6719970703125,-21.118999481201172 C-78.6719970703125,-21.118999481201172 -96.125,-21.118999481201172 -96.125,-21.118999481201172 C-100.38300323486328,-21.118999481201172 -103.83499908447266,-17.66699981689453 -103.83499908447266,-13.409000396728516 C-103.83499908447266,-13.409000396728516 -103.83499908447266,13.409000396728516 -103.83499908447266,13.409000396728516 C-103.83499908447266,17.66699981689453 -100.38300323486328,21.118999481201172 -96.125,21.118999481201172 C-96.125,21.118999481201172 -78.6719970703125,21.118999481201172 -78.6719970703125,21.118999481201172 C-76.9990005493164,21.118999481201172 -75.51300048828125,22.197999954223633 -75.00800323486328,23.792999267578125 C-73.64199829101562,28.104999542236328 -71.91600036621094,32.255001068115234 -69.86199951171875,36.209999084472656 C-69.08999633789062,37.69599914550781 -69.3759994506836,39.5099983215332 -70.55999755859375,40.694000244140625 C-70.55999755859375,40.694000244140625 -82.90399932861328,53.0369987487793 -82.90399932861328,53.0369987487793 C-85.91500091552734,56.04800033569336 -85.91500091552734,60.93000030517578 -82.90399932861328,63.941001892089844 C-82.90399932861328,63.941001892089844 -63.941001892089844,82.90399932861328 -63.941001892089844,82.90399932861328 C-60.93000030517578,85.91500091552734 -56.04800033569336,85.91500091552734 -53.0369987487793,82.90399932861328 C-53.0369987487793,82.90399932861328 -40.694000244140625,70.55999755859375 -40.694000244140625,70.55999755859375 C-39.5099983215332,69.3759994506836 -37.69599914550781,69.08999633789062 -36.209999084472656,69.86199951171875 C-32.255001068115234,71.91600036621094 -28.104999542236328,73.64199829101562 -23.792999267578125,75.00800323486328 C-22.197999954223633,75.51300048828125 -21.118999481201172,76.99800109863281 -21.118999481201172,78.6709976196289 C-21.118999481201172,78.6709976196289 -21.118999481201172,96.125 -21.118999481201172,96.125 C-21.118999481201172,100.38300323486328 -17.66699981689453,103.83499908447266 -13.409000396728516,103.83499908447266 C-13.409000396728516,103.83499908447266 13.409000396728516,103.83499908447266 13.409000396728516,103.83499908447266 C17.66699981689453,103.83499908447266 21.118999481201172,100.38300323486328 21.118999481201172,96.125 C21.118999481201172,96.125 21.118999481201172,78.6709976196289 21.118999481201172,78.6709976196289 C21.118999481201172,76.99800109863281 22.197999954223633,75.51300048828125 23.792999267578125,75.00800323486328 C28.104999542236328,73.64199829101562 32.255001068115234,71.91600036621094 36.209999084472656,69.86199951171875 C37.69599914550781,69.08999633789062 39.5099983215332,69.3759994506836 40.694000244140625,70.55999755859375 C40.694000244140625,70.55999755859375 53.0369987487793,82.90399932861328 53.0369987487793,82.90399932861328 C56.04800033569336,85.91500091552734 60.93000030517578,85.91500091552734 63.941001892089844,82.90399932861328 C63.941001892089844,82.90399932861328 82.90399932861328,63.941001892089844 82.90399932861328,63.941001892089844 C85.91500091552734,60.93000030517578 85.91500091552734,56.04800033569336 82.90399932861328,53.0369987487793 C82.90399932861328,53.0369987487793 70.55999755859375,40.694000244140625 70.55999755859375,40.694000244140625 C69.3759994506836,39.5099983215332 69.08999633789062,37.69599914550781 69.86199951171875,36.209999084472656 C71.91600036621094,32.255001068115234 73.64199829101562,28.104999542236328 75.00800323486328,23.792999267578125 C75.51300048828125,22.197999954223633 76.9990005493164,21.118999481201172 78.6719970703125,21.118999481201172 C78.6719970703125,21.118999481201172 96.125,21.118999481201172 96.125,21.118999481201172 C100.38300323486328,21.118999481201172 103.83499908447266,17.66699981689453 103.83499908447266,13.409000396728516z M0,37.9640007019043 C-20.966999053955078,37.9640007019043 -37.9640007019043,20.966999053955078 -37.9640007019043,0 C-37.9640007019043,-20.966999053955078 -20.966999053955078,-37.9640007019043 0,-37.9640007019043 C20.966999053955078,-37.9640007019043 37.9640007019043,-20.966999053955078 37.9640007019043,0 C37.9640007019043,20.966999053955078 20.966999053955078,37.9640007019043 0,37.9640007019043z"></path></g><g opacity="1" transform="matrix(1,0,0,1,394.35400390625,215.43800354003906)"><path stroke-linecap="round" stroke-linejoin="round" fill-opacity="0" stroke="#231F20" stroke-opacity="1" stroke-width="3px" d=" M0,59.08300018310547 C-32.63100051879883,59.08300018310547 -59.08300018310547,32.630001068115234 -59.08300018310547,0 C-59.08300018310547,-32.63100051879883 -32.63100051879883,-59.08300018310547 0,-59.08300018310547 C32.63100051879883,-59.08300018310547 59.08300018310547,-32.63100051879883 59.08300018310547,0 C59.08300018310547,32.630001068115234 32.63100051879883,59.08300018310547 0,59.08300018310547z"></path></g></g><g transform="matrix(1.0526354312896729,0,0,1.0526354312896729,-0.0014416304184123874,-7.835155010223389)" opacity="1" style="display: block;"><g opacity="1" transform="matrix(1,0,0,1,408.0639953613281,511.32000732421875)"><path fill="#C3ACF1" fill-opacity="1" d=" M146.70199584960938,-51.95800018310547 C136.7729949951172,-51.95600128173828 126.90399932861328,-50.45000076293945 117.54199981689453,-47.52799987792969 C117.53199768066406,-47.52799987792969 117.52200317382812,-47.518272399902344 117.51200103759766,-47.518272399902344 C67.06729888916016,-196.38612365722656 -159.70045471191406,-159.92489624023438 -157.9080047607422,0.44200000166893005 C-264.41064453125,-16.26581382751465 -276.9526672363281,137.8506622314453 -171.61700439453125,143.0019989013672 C-171.6179962158203,143.0019989013672 146.70199584960938,143.00172424316406 146.70199584960938,143.00172424316406 C277.6357727050781,138.8482208251953 276.4805603027344,-48.22425079345703 146.70199584960938,-51.95800018310547z"></path><path stroke-linecap="round" stroke-linejoin="round" fill-opacity="0" stroke="#231F20" stroke-opacity="1" stroke-width="3px" d=" M146.70199584960938,-51.95800018310547 C136.7729949951172,-51.95600128173828 126.90399932861328,-50.45000076293945 117.54199981689453,-47.52799987792969 C117.53199768066406,-47.52799987792969 117.52200317382812,-47.518272399902344 117.51200103759766,-47.518272399902344 C67.06729888916016,-196.38612365722656 -159.70045471191406,-159.92489624023438 -157.9080047607422,0.44200000166893005 C-264.41064453125,-16.26581382751465 -276.9526672363281,137.8506622314453 -171.61700439453125,143.0019989013672 C-171.6179962158203,143.0019989013672 146.70199584960938,143.00172424316406 146.70199584960938,143.00172424316406 C277.6357727050781,138.8482208251953 276.4805603027344,-48.22425079345703 146.70199584960938,-51.95800018310547z"></path></g><g opacity="1" transform="matrix(1,0,0,1,533.7509765625,482.45098876953125)"><path fill="#231F20" fill-opacity="1" d=" M8.145000457763672,-22.239999771118164 C8.145000457763672,-22.239999771118164 -0.9649999737739563,22.239999771118164 -0.9649999737739563,22.239999771118164 C-1.7450000047683716,6.53000020980835 -4.144999980926514,-8.819999694824219 -8.145000457763672,-18.65999984741211 C-2.884999990463257,-20.299999237060547 2.555000066757202,-21.510000228881836 8.145000457763672,-22.239999771118164z"></path><path stroke-linecap="round" stroke-linejoin="round" fill-opacity="0" stroke="#231F20" stroke-opacity="1" stroke-width="3px" d=" M8.145000457763672,-22.239999771118164 C8.145000457763672,-22.239999771118164 -0.9649999737739563,22.239999771118164 -0.9649999737739563,22.239999771118164 C-1.7450000047683716,6.53000020980835 -4.144999980926514,-8.819999694824219 -8.145000457763672,-18.65999984741211 C-2.884999990463257,-20.299999237060547 2.555000066757202,-21.510000228881836 8.145000457763672,-22.239999771118164z"></path></g><g opacity="1" transform="matrix(1,0,0,1,245.16099548339844,530.5239868164062)"><path fill="#231F20" fill-opacity="1" d=" M11.274999618530273,20.03700065612793 C11.274999618530273,20.03700065612793 -11.274999618530273,-20.033000946044922 -11.274999618530273,-20.033000946044922 C-8.71500015258789,-20.08300018310547 0.5550000071525574,-19.62299919128418 4.994999885559082,-18.76300048828125 C5.125,-7.14300012588501 6.565000057220459,3.677000045776367 11.274999618530273,20.03700065612793z"></path><path stroke-linecap="round" stroke-linejoin="round" fill-opacity="0" stroke="#231F20" stroke-opacity="1" stroke-width="3px" d=" M11.274999618530273,20.03700065612793 C11.274999618530273,20.03700065612793 -11.274999618530273,-20.033000946044922 -11.274999618530273,-20.033000946044922 C-8.71500015258789,-20.08300018310547 0.5550000071525574,-19.62299919128418 4.994999885559082,-18.76300048828125 C5.125,-7.14300012588501 6.565000057220459,3.677000045776367 11.274999618530273,20.03700065612793z"></path></g></g><g transform="matrix(0.6586399078369141,0.8211179375648499,-0.8211179375648499,0.6586399078369141,379.4077453613281,538.17333984375)" opacity="1" style="display: block;"><g opacity="1" transform="matrix(1,0,0,1,0,0)"><path fill="#FFFFFF" fill-opacity="1" d=" M2.691999912261963,29.808000564575195 C-4.644000053405762,29.808000564575195 -11.914999961853027,28.610000610351562 -18.91699981689453,26.246999740600586 C-31.43400001525879,22.02400016784668 -42.25600051879883,14.333000183105469 -50.39699935913086,3.9119999408721924 C-50.39699935913086,3.9119999408721924 -55.827999114990234,7.144000053405762 -58.645999908447266,7.146999835968018 C-61.01900100708008,7.150000095367432 -63.27399826049805,5.980000019073486 -64.677001953125,4.0269999504089355 C-66.0780029296875,2.0759999752044678 -66.43800354003906,-0.35600000619888306 -65.66500091552734,-2.6480000019073486 C-65.66500091552734,-2.6480000019073486 -58.194000244140625,-24.78700065612793 -58.194000244140625,-24.78700065612793 C-57.17599868774414,-27.804000854492188 -53.529998779296875,-30.88599967956543 -48.79899978637695,-29.440000534057617 C-48.79899978637695,-29.440000534057617 -26.65999984741211,-21.9689998626709 -26.65999984741211,-21.9689998626709 C-23.80900001525879,-21.006999969482422 -21.836000442504883,-18.444000244140625 -21.632999420166016,-15.439000129699707 C-21.430999755859375,-12.4350004196167 -23.04199981689453,-9.631999969482422 -25.738000869750977,-8.29699993133545 C-25.738000869750977,-8.29699993133545 -30.134000778198242,-6.11899995803833 -30.134000778198242,-6.11899995803833 C-25.066999435424805,-0.8360000252723694 -14.394000053405762,7.823999881744385 2.694999933242798,7.881999969482422 C21.301000595092773,7.945000171661377 37.91999816894531,-3.194999933242798 45.03300094604492,-20.33799934387207 C46.207000732421875,-23.172000885009766 48.90599822998047,-25.013999938964844 51.90800094604492,-25.0049991607666 C53.867000579833984,-24.999000549316406 59.52299880981445,-22.902999877929688 60.97700119018555,-22.347999572753906 C62.91699981689453,-21.694000244140625 64.5250015258789,-20.246999740600586 65.38700103759766,-18.378000259399414 C66.23100280761719,-16.54599952697754 66.28900146484375,-14.4350004196167 65.5459976196289,-12.586000442504883 C55.17499923706055,13.168000221252441 30.5049991607666,29.808000564575195 2.694999933242798,29.808000564575195 C2.694000005722046,29.808000564575195 2.694000005722046,29.808000564575195 2.691999912261963,29.808000564575195z"></path><path stroke-linecap="round" stroke-linejoin="round" fill-opacity="0" stroke="#231F20" stroke-opacity="1" stroke-width="3px" d=" M2.691999912261963,29.808000564575195 C-4.644000053405762,29.808000564575195 -11.914999961853027,28.610000610351562 -18.91699981689453,26.246999740600586 C-31.43400001525879,22.02400016784668 -42.25600051879883,14.333000183105469 -50.39699935913086,3.9119999408721924 C-50.39699935913086,3.9119999408721924 -55.827999114990234,7.144000053405762 -58.645999908447266,7.146999835968018 C-61.01900100708008,7.150000095367432 -63.27399826049805,5.980000019073486 -64.677001953125,4.0269999504089355 C-66.0780029296875,2.0759999752044678 -66.43800354003906,-0.35600000619888306 -65.66500091552734,-2.6480000019073486 C-65.66500091552734,-2.6480000019073486 -58.194000244140625,-24.78700065612793 -58.194000244140625,-24.78700065612793 C-57.17599868774414,-27.804000854492188 -53.529998779296875,-30.88599967956543 -48.79899978637695,-29.440000534057617 C-48.79899978637695,-29.440000534057617 -26.65999984741211,-21.9689998626709 -26.65999984741211,-21.9689998626709 C-23.80900001525879,-21.006999969482422 -21.836000442504883,-18.444000244140625 -21.632999420166016,-15.439000129699707 C-21.430999755859375,-12.4350004196167 -23.04199981689453,-9.631999969482422 -25.738000869750977,-8.29699993133545 C-25.738000869750977,-8.29699993133545 -30.134000778198242,-6.11899995803833 -30.134000778198242,-6.11899995803833 C-25.066999435424805,-0.8360000252723694 -14.394000053405762,7.823999881744385 2.694999933242798,7.881999969482422 C21.301000595092773,7.945000171661377 37.91999816894531,-3.194999933242798 45.03300094604492,-20.33799934387207 C46.207000732421875,-23.172000885009766 48.90599822998047,-25.013999938964844 51.90800094604492,-25.0049991607666 C53.867000579833984,-24.999000549316406 59.52299880981445,-22.902999877929688 60.97700119018555,-22.347999572753906 C62.91699981689453,-21.694000244140625 64.5250015258789,-20.246999740600586 65.38700103759766,-18.378000259399414 C66.23100280761719,-16.54599952697754 66.28900146484375,-14.4350004196167 65.5459976196289,-12.586000442504883 C55.17499923706055,13.168000221252441 30.5049991607666,29.808000564575195 2.694999933242798,29.808000564575195 C2.694000005722046,29.808000564575195 2.694000005722046,29.808000564575195 2.691999912261963,29.808000564575195z"></path></g></g><g transform="matrix(0.6586399078369141,0.8211179375648499,-0.8211179375648499,0.6586399078369141,445.2852783203125,492.7244873046875)" opacity="1" style="display: block;"><g opacity="1" transform="matrix(1,0,0,1,0,0)"><path fill="#FFFFFF" fill-opacity="1" d=" M48.797000885009766,29.433000564575195 C48.797000885009766,29.433000564575195 26.658000946044922,21.961999893188477 26.658000946044922,21.961999893188477 C23.80900001525879,21.000999450683594 21.836000442504883,18.43899917602539 21.634000778198242,15.4350004196167 C21.430999755859375,12.432000160217285 23.041000366210938,9.630000114440918 25.732999801635742,8.295999526977539 C25.732999801635742,8.295999526977539 30.03700065612793,6.164999961853027 30.03700065612793,6.164999961853027 C24.934999465942383,0.8140000104904175 14.008999824523926,-8.02400016784668 -2.696000099182129,-7.889999866485596 C-21.302000045776367,-7.741000175476074 -37.92100143432617,3.186000108718872 -45.034000396728516,20.329999923706055 C-46.20800018310547,23.163999557495117 -49.768001556396484,26.073999404907227 -54.25,24.611000061035156 C-54.25,24.611000061035156 -60.979000091552734,22.34000015258789 -60.979000091552734,22.34000015258789 C-65.28500366210938,21.047000885009766 -67.01899719238281,16.2450008392334 -65.5479965209961,12.579999923706055 C-55.167999267578125,-13.274999618530273 -30.5049991607666,-29.81599998474121 -2.693000078201294,-29.81599998474121 C4.642000198364258,-29.81599998474121 11.911999702453613,-28.618000030517578 18.915000915527344,-26.253999710083008 C31.447999954223633,-22.024999618530273 42.27399826049805,-14.342000007629395 50.41299819946289,-3.934000015258789 C50.41299819946289,-3.934000015258789 55.345001220703125,-6.376999855041504 55.345001220703125,-6.376999855041504 C59.78300094604492,-8.486000061035156 63.270999908447266,-5.992000102996826 64.67500305175781,-4.039000034332275 C66.07599639892578,-2.0869998931884766 66.43599700927734,0.34700000286102295 65.66300201416016,2.640000104904175 C65.66300201416016,2.640000104904175 58.19200134277344,24.77899932861328 58.19200134277344,24.77899932861328 C57.17399978637695,27.795000076293945 53.573001861572266,30.922000885009766 48.797000885009766,29.433000564575195z"></path><path stroke-linecap="round" stroke-linejoin="round" fill-opacity="0" stroke="#231F20" stroke-opacity="1" stroke-width="3px" d=" M48.797000885009766,29.433000564575195 C48.797000885009766,29.433000564575195 26.658000946044922,21.961999893188477 26.658000946044922,21.961999893188477 C23.80900001525879,21.000999450683594 21.836000442504883,18.43899917602539 21.634000778198242,15.4350004196167 C21.430999755859375,12.432000160217285 23.041000366210938,9.630000114440918 25.732999801635742,8.295999526977539 C25.732999801635742,8.295999526977539 30.03700065612793,6.164999961853027 30.03700065612793,6.164999961853027 C24.934999465942383,0.8140000104904175 14.008999824523926,-8.02400016784668 -2.696000099182129,-7.889999866485596 C-21.302000045776367,-7.741000175476074 -37.92100143432617,3.186000108718872 -45.034000396728516,20.329999923706055 C-46.20800018310547,23.163999557495117 -49.768001556396484,26.073999404907227 -54.25,24.611000061035156 C-54.25,24.611000061035156 -60.979000091552734,22.34000015258789 -60.979000091552734,22.34000015258789 C-65.28500366210938,21.047000885009766 -67.01899719238281,16.2450008392334 -65.5479965209961,12.579999923706055 C-55.167999267578125,-13.274999618530273 -30.5049991607666,-29.81599998474121 -2.693000078201294,-29.81599998474121 C4.642000198364258,-29.81599998474121 11.911999702453613,-28.618000030517578 18.915000915527344,-26.253999710083008 C31.447999954223633,-22.024999618530273 42.27399826049805,-14.342000007629395 50.41299819946289,-3.934000015258789 C50.41299819946289,-3.934000015258789 55.345001220703125,-6.376999855041504 55.345001220703125,-6.376999855041504 C59.78300094604492,-8.486000061035156 63.270999908447266,-5.992000102996826 64.67500305175781,-4.039000034332275 C66.07599639892578,-2.0869998931884766 66.43599700927734,0.34700000286102295 65.66300201416016,2.640000104904175 C65.66300201416016,2.640000104904175 58.19200134277344,24.77899932861328 58.19200134277344,24.77899932861328 C57.17399978637695,27.795000076293945 53.573001861572266,30.922000885009766 48.797000885009766,29.433000564575195z"></path></g></g><g transform="matrix(1.0526267290115356,0.0025888250675052404,-0.0025888250675052404,1.0526267290115356,163.03810119628906,512.5634765625)" opacity="1" style="display: block;"><g opacity="1" transform="matrix(1,0,0,1,0,0)"><path fill="#CAE062" fill-opacity="1" d=" M21.708999633789062,-28.658000946044922 C21.708999633789062,-28.658000946044922 -13.96399974822998,33.130001068115234 -13.96399974822998,33.130001068115234 C-15.199000358581543,35.26900100708008 -17.93400001525879,36.00199890136719 -20.072999954223633,34.766998291015625 C-20.072999954223633,34.766998291015625 -20.072999954223633,34.766998291015625 -20.072999954223633,34.766998291015625 C-22.211999893188477,33.53200149536133 -22.944000244140625,30.797000885009766 -21.708999633789062,28.658000946044922 C-21.708999633789062,28.658000946044922 13.96399974822998,-33.130001068115234 13.96399974822998,-33.130001068115234 C15.199000358581543,-35.26900100708008 17.93400001525879,-36.00199890136719 20.072999954223633,-34.766998291015625 C20.072999954223633,-34.766998291015625 20.072999954223633,-34.766998291015625 20.072999954223633,-34.766998291015625 C22.211999893188477,-33.53200149536133 22.944000244140625,-30.797000885009766 21.708999633789062,-28.658000946044922z"></path><path stroke-linecap="round" stroke-linejoin="round" fill-opacity="0" stroke="#231F20" stroke-opacity="1" stroke-width="3px" d=" M21.708999633789062,-28.658000946044922 C21.708999633789062,-28.658000946044922 -13.96399974822998,33.130001068115234 -13.96399974822998,33.130001068115234 C-15.199000358581543,35.26900100708008 -17.93400001525879,36.00199890136719 -20.072999954223633,34.766998291015625 C-20.072999954223633,34.766998291015625 -20.072999954223633,34.766998291015625 -20.072999954223633,34.766998291015625 C-22.211999893188477,33.53200149536133 -22.944000244140625,30.797000885009766 -21.708999633789062,28.658000946044922 C-21.708999633789062,28.658000946044922 13.96399974822998,-33.130001068115234 13.96399974822998,-33.130001068115234 C15.199000358581543,-35.26900100708008 17.93400001525879,-36.00199890136719 20.072999954223633,-34.766998291015625 C20.072999954223633,-34.766998291015625 20.072999954223633,-34.766998291015625 20.072999954223633,-34.766998291015625 C22.211999893188477,-33.53200149536133 22.944000244140625,-30.797000885009766 21.708999633789062,-28.658000946044922z"></path></g></g><g transform="matrix(0.033079635351896286,0,0,0.033079635351896286,109.9165267944336,312.4008483886719)" opacity="1" style="display: block;"><g opacity="1" transform="matrix(1,0,0,1,0,0)"><path fill="#FFFFFF" fill-opacity="1" d=" M0.003000000026077032,-35.67900085449219 C1.902999997138977,-26.219999313354492 4.401000022888184,-15.720999717712402 6.251999855041504,-6.251999855041504 C15.720999717712402,-4.400000095367432 26.22100067138672,-1.9040000438690186 35.67900085449219,0 C26.219999313354492,1.9040000438690186 15.720999717712402,4.400000095367432 6.251999855041504,6.251999855041504 C4.39900016784668,15.720999717712402 1.906000018119812,26.22100067138672 -0.003000000026077032,35.67900085449219 C-1.902999997138977,26.020000457763672 -4.401000022888184,15.295000076293945 -6.251999855041504,5.625999927520752 C-15.718000411987305,3.9739999771118164 -26.222999572753906,1.7039999961853027 -35.67900085449219,0 C-26.218000411987305,-2.1040000915527344 -15.723999977111816,-4.826000213623047 -6.251999855041504,-6.877999782562256 C-4.39900016784668,-16.14699935913086 -1.906000018119812,-26.422000885009766 0.003000000026077032,-35.67900085449219z"></path><path stroke-linecap="round" stroke-linejoin="round" fill-opacity="0" stroke="#231F20" stroke-opacity="1" stroke-width="3px" d=" M0.003000000026077032,-35.67900085449219 C1.902999997138977,-26.219999313354492 4.401000022888184,-15.720999717712402 6.251999855041504,-6.251999855041504 C15.720999717712402,-4.400000095367432 26.22100067138672,-1.9040000438690186 35.67900085449219,0 C26.219999313354492,1.9040000438690186 15.720999717712402,4.400000095367432 6.251999855041504,6.251999855041504 C4.39900016784668,15.720999717712402 1.906000018119812,26.22100067138672 -0.003000000026077032,35.67900085449219 C-1.902999997138977,26.020000457763672 -4.401000022888184,15.295000076293945 -6.251999855041504,5.625999927520752 C-15.718000411987305,3.9739999771118164 -26.222999572753906,1.7039999961853027 -35.67900085449219,0 C-26.218000411987305,-2.1040000915527344 -15.723999977111816,-4.826000213623047 -6.251999855041504,-6.877999782562256 C-4.39900016784668,-16.14699935913086 -1.906000018119812,-26.422000885009766 0.003000000026077032,-35.67900085449219z"></path></g></g><g transform="matrix(0.9236297011375427,0,0,0.9236297011375427,665.9652099609375,524.362548828125)" opacity="1" style="display: block;"><g opacity="1" transform="matrix(1,0,0,1,0,0)"><path fill="#FFFFFF" fill-opacity="1" d=" M0,16.832000732421875 C0,9.468000411987305 -9.468000411987305,0 -16.832000732421875,0 C-9.468000411987305,0 0,-9.468000411987305 0,-16.832000732421875 C0,-9.468000411987305 9.468000411987305,0 16.832000732421875,0 C9.468000411987305,0 0,9.468000411987305 0,16.832000732421875z"></path><path stroke-linecap="round" stroke-linejoin="round" fill-opacity="0" stroke="#231F20" stroke-opacity="1" stroke-width="3px" d=" M0,16.832000732421875 C0,9.468000411987305 -9.468000411987305,0 -16.832000732421875,0 C-9.468000411987305,0 0,-9.468000411987305 0,-16.832000732421875 C0,-9.468000411987305 9.468000411987305,0 16.832000732421875,0 C9.468000411987305,0 0,9.468000411987305 0,16.832000732421875z"></path></g></g><g transform="matrix(0.31095606088638306,0,0,0.31095606088638306,175.6497344970703,611.0565795898438)" opacity="1" style="display: block;"><g opacity="1" transform="matrix(1,0,0,1,0,0)"><path fill="#FFFFFF" fill-opacity="1" d=" M0,27.948999404907227 C0,15.720999717712402 -15.720999717712402,0 -27.948999404907227,0 C-15.720999717712402,0 0,-15.720999717712402 0,-27.948999404907227 C0,-15.720999717712402 15.720999717712402,0 27.948999404907227,0 C15.720999717712402,0 0,15.720999717712402 0,27.948999404907227z"></path><path stroke-linecap="round" stroke-linejoin="round" fill-opacity="0" stroke="#231F20" stroke-opacity="1" stroke-width="3px" d=" M0,27.948999404907227 C0,15.720999717712402 -15.720999717712402,0 -27.948999404907227,0 C-15.720999717712402,0 0,-15.720999717712402 0,-27.948999404907227 C0,-15.720999717712402 15.720999717712402,0 27.948999404907227,0 C15.720999717712402,0 0,15.720999717712402 0,27.948999404907227z"></path></g></g><g transform="matrix(0.9276800155639648,0,0,0.9276800155639648,609.1176147460938,572.8479614257812)" opacity="1" style="display: block;"><g opacity="1" transform="matrix(1,0,0,1,0,0)"><path fill="#FFFFFF" fill-opacity="1" d=" M0,27.948999404907227 C0,15.720999717712402 -15.720999717712402,0 -27.948999404907227,0 C-15.720999717712402,0 0,-15.720999717712402 0,-27.948999404907227 C0,-15.720999717712402 15.720999717712402,0 27.948999404907227,0 C15.720999717712402,0 0,15.720999717712402 0,27.948999404907227z"></path><path stroke-linecap="round" stroke-linejoin="round" fill-opacity="0" stroke="#231F20" stroke-opacity="1" stroke-width="3px" d=" M0,27.948999404907227 C0,15.720999717712402 -15.720999717712402,0 -27.948999404907227,0 C-15.720999717712402,0 0,-15.720999717712402 0,-27.948999404907227 C0,-15.720999717712402 15.720999717712402,0 27.948999404907227,0 C15.720999717712402,0 0,15.720999717712402 0,27.948999404907227z"></path></g></g></g></svg>