<svg xmlns:xlink="http://www.w3.org/1999/xlink" xmlns="http://www.w3.org/2000/svg" enable-background="new 0 0 3000 3000" viewBox="0 0 3000 3000" width="550" height="550"><path fill="#151516" d="M379.28 1799.14c-1.93 0-3.5-1.57-3.5-3.5 0-48.68 27.23-89.47 72.85-109.1 25.35-10.91 53.67-14.01 81.9-8.98 26.15 4.66 51.01 16.28 72.6 33.83-8.86-31.68-.25-60.48 24.53-80.41 27.03-21.74 66.71-27.2 97.6-15.21-15.31-20.04-28.87-46.53-38.97-76.52-13.93-41.33-19.81-84.69-17.01-125.37 4.62-66.97 32.58-122.16 80.87-159.61 56.37-43.71 128.1-58.47 201.97-41.54 62.5 14.32 117.5 50.03 143.94 92.65 1.93-15.06 7.51-29.02 16.4-40.9 10.27-13.71 24.8-24.21 40.91-29.57 31.5-10.46 63.34-.52 83.09 25.94 1.16 1.55.84 3.74-.71 4.9a3.498 3.498 0 0 1-4.9-.71c-17.88-23.97-46.73-32.96-75.27-23.49-14.77 4.9-28.1 14.54-37.52 27.12-10.32 13.78-15.77 30.65-15.77 48.78 0 1.62-1.12 3.04-2.7 3.41s-3.21-.39-3.93-1.85c-22.53-45.38-79.48-84.42-145.1-99.45-71.79-16.45-141.44-2.15-196.12 40.25-58.96 45.73-75.06 109.29-78.18 154.56-2.74 39.77 3.02 82.19 16.66 122.65 12.21 36.22 30.26 68.31 49.54 88.04a3.5 3.5 0 0 1 .16 4.71 3.5 3.5 0 0 1-4.68.6c-29.45-20.67-75.97-18.01-105.9 6.06-25.46 20.47-32.03 51.46-18.01 85a3.497 3.497 0 0 1-5.63 3.89c-22.78-21.57-50.13-35.7-79.1-40.87-26.87-4.79-53.81-1.85-77.9 8.52-42.97 18.49-68.62 56.87-68.62 102.67 0 1.93-1.56 3.5-3.5 3.5zM2058.5 1565.84c-.12 0-.24-.01-.36-.02-1.6-.17-2.89-1.4-3.11-3-.07-.49-7.22-49.5-37.89-62.2-18.55-7.69-42.29-.75-70.56 20.61a3.494 3.494 0 0 1-4.9-.68 3.494 3.494 0 0 1 .68-4.9c30.4-22.97 56.47-30.2 77.48-21.49 14.34 5.95 26.19 19.61 34.25 39.51 2.73 6.73 4.59 13.07 5.82 18.02 4.4-7.23 12.09-16.72 24.01-21.43 10.75-4.25 22.76-3.77 35.79 1.4-16.27-58.12-6.2-109.6 28.7-145.6 38.2-39.4 102.6-54.97 160.26-38.74 1.86.52 2.94 2.46 2.42 4.32a3.497 3.497 0 0 1-4.32 2.42c-55.26-15.56-116.88-.74-153.34 36.87-16.3 16.82-26.96 37.17-31.67 60.49-5.22 25.85-2.92 54.63 6.83 85.56.42 1.35 0 2.82-1.08 3.73s-2.6 1.08-3.86.44c-13.94-7.15-26.44-8.62-37.17-4.37-17.41 6.88-24.62 26.55-24.69 26.75a3.506 3.506 0 0 1-3.29 2.31z" class="color151516 svgShape"></path><path fill="#003557" d="M1186.33 2467.58c42.75 88.26 122.74 159.98 151.71 162.74s187.56-48.27 212.39-153.08c24.82-104.81 148.43-1276.67 148.43-1276.67l-254.19-80.28-188.26 144.76-70.08 1202.53z" class="color003557 svgShape"></path><path fill="#00C29B" d="M2069.71 2152.32c9.42-42.39 8.24-74.18-10.6-228.42-18.84-154.24-40.03-239.02-50.63-263.74-7.06-51.81-38.85-247.21-80.06-279.61-7.9-6.22-16.11-11.63-24.22-16.32 2.6-17.2 4.84-38.6 3.02-53.76-3.53-29.44-41.21-41.21-21.19-80.06s17.66-54.16 17.66-60.05c0-5.89-288.13-88.38-459.02-50.08-111.91 20.9-129.47 46.5-142.63 75.03-22.62 9.49-60.67 16.08-71.64 35.1-10.97 19.02-5.16 76.84-5.16 76.84s-118.59 67.34-145.9 117.27c-14.04 24.97 7.02 163.83 7.02 163.83s-15.6 21.06-19.5 35.89c-3.9 14.82 13.26 16.38 0 47.59-13.26 31.21-13.26 30.43 5.46 56.95-17.94 67.87-35.69 182.27-47.75 260.09-12.06 77.82-5.48 73.43-48.22 177.55-42.74 104.12-46.03 245.5 71.24 312.36 21.95-29.86 59.59-117.75 59.59-117.75s43.51 187.76 66.03 243.25c22.52 55.48 35.38 40.21 35.38 40.21s0-177.45 2.75-242.1 28.89-536.47 35.76-627.26c6.88-90.79 42.37-393.56 44.17-418.78 1.8-25.22 1.74-78.07 8.57-84.27l1.24-26.68s32.26-32.88 86.85-44.05c54.59-11.17 104.84-16.75 144.54-2.48 39.7 14.27 78.17 30.4 78.17 30.4s-22.33 63.28-37.84 189.83-47.05 529.52-49.4 606.05c-2.35 76.53-50.63 541.61 21.19 582.82-2.35-41.21 18.84-44.74 29.44-65.94 10.6-21.19 93.02-195.45 93.02-195.45s111.85 164.84 121.27 180.15c9.42 15.31 214.29-56.52 289.65-267.27 12.93-31.79-17.68-64.75-8.26-107.14z" class="color00c29b svgShape"></path><path fill="#FFFFFF" d="M1339.34 1082.65c32.92 65.1 25.6 132.39 25.6 132.39s-29.99 19.75-38.77 30.72c-8.78 10.97 10.97 128.74 54.86 134.59s167.5-126.54 175.55-144.1-28.53-21.94-43.16-43.16c-10.24-60.71 19.75-154.34 19.75-154.34l-193.83 43.9z" class="colorfff svgShape"></path><path fill="#151516" d="M1383.91 1384.04c-1.15 0-2.26-.07-3.34-.21-20.92-2.79-35.05-27.63-43.21-47.98-13.7-34.12-21.11-83.27-13.91-92.26 8-10.01 31.99-26.38 38.16-30.51.81-10.53 3.88-70.96-25.38-128.83-.49-.96-.5-2.09-.04-3.07.46-.97 1.34-1.68 2.39-1.92l193.84-43.89c1.22-.27 2.5.12 3.35 1.05.85.93 1.14 2.24.75 3.43-.3.92-29.35 92.71-19.76 151.91 5.91 8.15 15.63 13.79 24.24 18.78 12.13 7.04 24.68 14.31 18.78 27.2-4.5 9.82-39.02 48.56-75.14 81.94-32.24 29.75-75.18 64.36-100.73 64.36zm-39.47-298.95c30.75 64.03 24.05 129.67 23.98 130.34a3.47 3.47 0 0 1-1.55 2.54c-.29.19-29.63 19.57-37.96 29.98-3.62 4.72-.1 48.96 15.67 87.05 7.38 17.84 19.78 39.59 36.92 41.88 17.16 2.29 53.01-20.45 98.38-62.37 37.23-34.41 69.76-71.5 73.53-79.71 2.96-6.46-2.3-10.32-15.93-18.22-9.46-5.49-20.18-11.7-26.93-21.49-.29-.42-.49-.9-.57-1.41-4.32-25.6-2.28-59.65 6.05-101.21 4.38-21.83 9.44-40.08 12.05-48.97l-183.64 41.59zm20.5 129.96h.01-.01z" class="color151516 svgShape"></path><path fill="#B8CCD8" d="M1229.65 803.51c-62.53-63.76-42.74-142.34-42.74-142.34l-33.75 34.71s.96-91.61 57.86-150.43c0 0-30.86 5.79-54 19.29 55.93-136.93 182.25-131.15 209.25-124.4 0 0 73.29-40.5 209.25 2.89s228.49 162.87 244.5 248.52c16 85.65-1.56 164.31-34.77 143.18 6.04 42.26-13.28 50.11-13.28 50.11l-21.74-22.34s7.85 33.21-12.08 15.09c-16.3 56.75-70.64 91.17-70.64 91.17l-437.86-165.45z" class="colorb8ccd8 svgShape"></path><path fill="#FFFFFF" d="M1688.99 976.14c-26.84 52.7-95.45 49.71-95.45 49.71s-59.66 45.74-127.28 70.6c-67.62 24.85-107.39 29.83-132.24 16.91-111.36-59.66-161.09-123.3-156.11-180.97 3.47-40.21 31.4-133.39 50.2-204.58 2.03-7.64 3.94-15.03 5.71-22.08.01 0 .01-.01.01-.01 5.38-21.45 9.4-39.69 10.88-52.09 11.45-17.04 26.82-36.35 46.08-52.95-2.74 16.88-7.58 70.87 38.3 107 0 0-3.45-45.31 14.91-87.75 5.73 23.51 30.39 41.29 30.39 41.29s-6.31-45.3 6.31-78.57c7.46 28.68 45.31 109.54 121.59 127.31-9.5-20.1-15.19-61.43-15.47-63.57.45 1.85 8.18 32.28 48.73 93.4 41.86 63.08 46.45 43 47.6 19.49 18.93 44.16 5.73 98.64 5.73 98.64s5.17-13.19 13.19-24.66c-5.16 24.09 3.4 78.23 3.4 78.23s7.96-1 25.86-12.93c53.69-53.67 84.51 24.88 57.66 77.58z" class="colorfff svgShape"></path><path fill="#151516" d="M1366.6 1123.79c-13.69 0-24.87-2.47-34.2-7.32-54.7-29.3-95.98-60.28-122.75-92.08-26-30.9-37.85-61.95-35.24-92.29 2.67-30.97 19.52-92.37 35.81-151.74 5.16-18.79 10.03-36.54 14.49-53.43 2.1-7.89 4.01-15.3 5.69-22.03l.06-.22c5.92-23.62 9.44-40.45 10.75-51.45.07-.55.26-1.08.57-1.54 14.19-21.11 29.9-39.16 46.7-53.65a3.49 3.49 0 0 1 3.99-.4 3.52 3.52 0 0 1 1.75 3.62c-3.07 18.91-5.79 65.01 31.08 98.66-.14-15.06 1.39-48.8 15.47-81.36.6-1.38 2.01-2.23 3.51-2.1 1.5.13 2.75 1.2 3.1 2.66 3.58 14.69 15.22 27.19 22.63 33.94-1.2-14.97-2.18-46.38 7.4-71.63.54-1.42 1.95-2.32 3.46-2.25 1.52.08 2.81 1.14 3.2 2.61 6.76 25.99 41.58 102.44 112.27 123.02-8.32-22.46-12.95-57.55-13-57.94-.24-1.84 1-3.55 2.83-3.89 1.83-.35 3.6.81 4.04 2.61.31 1.26 8 31.64 48.24 92.29 26.38 39.75 34.66 41.13 36.57 40.59 1.7-.47 3.88-4.2 4.62-19.34a3.484 3.484 0 0 1 2.88-3.27c1.6-.3 3.19.57 3.84 2.07 11.74 27.39 11.52 58.21 9.47 78.51 1.06-1.72 2.18-3.45 3.37-5.15a3.493 3.493 0 0 1 4.27-1.2c1.53.67 2.37 2.31 2.02 3.94-4.18 19.49 1.04 60.27 2.86 73.04 3.68-1.33 10.48-4.38 20.75-11.2 11.35-11.27 33.11-27.66 53.08-13.15 10.46 7.6 17.61 22.47 19.62 40.79 2.02 18.41-1.51 38.18-9.69 54.23-11.43 22.44-32.16 38.48-59.95 46.4-17.84 5.08-33.06 5.31-37.49 5.26-8.13 6.07-64.61 47.34-127.2 70.36-44.03 16.16-76.43 24.03-100.87 24.03zM1237.15 706.8c-1.68 6.71-3.58 14.08-5.67 21.92-4.47 16.93-9.35 34.69-14.51 53.49-16.21 59.07-32.98 120.15-35.59 150.49-2.45 28.43 8.86 57.76 33.62 87.18 26.19 31.12 66.79 61.54 120.66 90.4 23.71 12.33 63.63 7.06 129.38-17.11 66.31-24.38 125.76-69.64 126.35-70.09.65-.5 1.46-.75 2.28-.72.16.01 16.99.64 36.75-5.02 26.14-7.49 44.79-21.89 55.43-42.79 16.86-33.09 9.65-73.5-7.81-86.18-11.79-8.57-27.52-4.07-44.27 12.68-.16.16-.34.31-.53.44-18.07 12.05-26.47 13.38-27.36 13.49-1.88.24-3.6-1.06-3.89-2.93-.29-1.82-5.79-37.1-5.03-63.36-3.04 5.94-4.82 10.45-4.85 10.52a3.506 3.506 0 0 1-4.31 2.06 3.504 3.504 0 0 1-2.35-4.16c.12-.48 10.12-42.99-.67-82.36-1.34 5.24-3.67 9.29-7.92 10.46-6.44 1.78-16.74-2.01-44.26-43.47-17.36-26.16-28.75-46.72-36.15-61.92 2.39 10.42 5.42 21.12 8.98 28.66.57 1.21.4 2.65-.44 3.69a3.48 3.48 0 0 1-3.52 1.21c-70.14-16.35-108.24-84.78-120.77-119.1-7.72 30.44-2.93 66.06-2.87 66.46a3.5 3.5 0 0 1-1.66 3.48 3.5 3.5 0 0 1-3.85-.16c-.91-.66-19.75-14.41-28.56-34.1-13.96 38.51-11.23 77.04-11.2 77.45a3.494 3.494 0 0 1-5.65 3.01c-20.31-16-33.32-37.11-38.65-62.76-3.06-14.73-2.95-28.32-2.11-38.13-13.56 12.75-26.35 27.96-38.09 45.34-1.44 11.44-4.9 27.9-10.85 51.63 0 .12-.03.21-.06.3z" class="color151516 svgShape"></path><path fill="#151516" d="M1284.71 718.78c-9.86-8.03-37.59-13.38-56.61 9.04 2.03-7.64 3.94-15.03 5.71-22.08.01 0 .01-.01.01-.01 10.25-13.95 50-23.71 50.89 13.05zM1396.35 701.06c34.55-14.62 59.8-8.86 83.28 9.75 23.48 18.61 37.54-12.64-5.76-37.65-42.56-24.59-78.85 6.46-89.93 20.06s-2.03 13.81 12.41 7.84zM1557.72 2042.24c-1.87 0-3.42-1.48-3.49-3.36-2.33-57.8 16.62-397.16 16.81-400.58 0-.06.01-.11.01-.17.2-1.89 3.67-21.06 63.46-112.57 47.08-72.04 112.64-162.99 157.63-187.13 36.97-19.84 72.12-.33 106.12 18.53 2.54 1.41 5.07 2.81 7.61 4.21 1.7.93 2.32 3.06 1.39 4.75a3.504 3.504 0 0 1-4.75 1.39c-2.55-1.4-5.09-2.81-7.64-4.22-33.85-18.78-65.82-36.51-99.42-18.49-34.58 18.56-88.21 82.46-155.08 184.79-57.3 87.68-62.05 107.83-62.36 109.48-.53 9.42-19.09 342.79-16.8 399.73a3.5 3.5 0 0 1-3.36 3.64h-.13zM1206.83 2097.1c-1.63 0-3.09-1.14-3.42-2.8-.14-.72-3.47-18.81-.07-129.4 3.39-110.15 30.62-331.4 34.34-353.7 1.57-9.44-1.64-55.45-5.35-108.73-4.21-60.37-9.45-135.51-10.6-195.16a3.505 3.505 0 0 1 3.43-3.57h.07c1.9 0 3.46 1.52 3.5 3.43 1.14 59.47 6.37 134.51 10.58 194.81 4.06 58.12 6.98 100.12 5.28 110.37-3.71 22.25-30.87 242.91-34.25 352.77-3.34 108.63-.2 127.1-.06 127.84.35 1.89-.89 3.72-2.78 4.08-.23.04-.45.06-.67.06z" class="color151516 svgShape"></path><path fill="#151516" d="M1616.66 1517.53c-.49 0-.98-.1-1.45-.32a3.502 3.502 0 0 1-1.73-4.64c33.04-72.33 75.49-117.96 105.29-143.5 32.4-27.78 56.69-38.26 57.71-38.69 1.78-.76 3.83.07 4.59 1.85.76 1.78-.07 3.83-1.85 4.59-.24.1-24.52 10.61-56.15 37.78-29.18 25.07-70.78 69.86-103.22 140.87-.6 1.3-1.87 2.06-3.19 2.06zM1880.72 1331.56c-.62 0-1.25-.17-1.82-.51-.23-.14-23.34-13.89-52.31-9.04-1.91.31-3.71-.97-4.03-2.87s.97-3.71 2.87-4.03c31.63-5.29 56.09 9.34 57.12 9.97a3.507 3.507 0 0 1 1.17 4.81 3.566 3.566 0 0 1-3 1.67zM1698.86 1371.78c-.62 0-1.24-.16-1.8-.5a3.49 3.49 0 0 1-1.19-4.8c.36-.6 36.18-60.14 44.63-75.34 3.96-7.13 16.85-13.76 34.68-22.92 23.8-12.23 56.4-28.99 75.46-53 1.2-1.51 3.4-1.77 4.92-.57 1.51 1.2 1.77 3.4.57 4.92-19.99 25.2-53.37 42.35-77.74 54.88-15.47 7.95-28.83 14.82-31.76 20.1-8.5 15.31-44.39 74.95-44.75 75.55a3.576 3.576 0 0 1-3.02 1.68zM1610.62 1232.77c-.65 0-1.3-.18-1.89-.55a3.494 3.494 0 0 1-1.05-4.84c8.68-13.52 41.74-27.69 98.24-42.12 25.58-6.53 50.45-11.67 65.87-14.68-43.75-10.67-170.87-39.27-256.4-33.72-1.91.13-3.59-1.34-3.72-3.27a3.509 3.509 0 0 1 3.27-3.72c105.33-6.81 272.42 37.39 274.09 37.83 1.59.42 2.67 1.9 2.59 3.54a3.496 3.496 0 0 1-2.9 3.29c-.39.07-39.82 6.96-81.12 17.51-53.17 13.58-86.56 27.47-94.04 39.11a3.452 3.452 0 0 1-2.94 1.62z" class="color151516 svgShape"></path><path fill="#151516" d="M1651.65 1174.59c-.27 0-.54-.03-.82-.1-.57-.14-57.86-13.6-139.4-11.88h-.07c-1.9 0-3.46-1.52-3.5-3.43a3.498 3.498 0 0 1 3.43-3.57c82.48-1.73 140.6 11.93 141.17 12.07 1.88.45 3.04 2.34 2.59 4.22a3.49 3.49 0 0 1-3.4 2.69zM1129.67 1750.73c-1.81 0-3.34-1.4-3.49-3.23-3.27-42.57-11.34-161.66-11.97-170.94-2.12-5.26-17.28-44.47-18.91-95a3.499 3.499 0 0 1 3.39-3.61c1.92-.02 3.55 1.45 3.61 3.38 1.67 51.84 18.43 92.67 18.6 93.08.15.35.24.73.26 1.11.09 1.27 8.61 127.38 12 171.44a3.497 3.497 0 0 1-3.22 3.76c-.09.01-.18.01-.27.01z" class="color151516 svgShape"></path><path fill="#151516" d="M1073.64 2259.52c-1.46 0-2.82-.92-3.31-2.37-7.89-23.22-8.27-40.68-1.1-51.9 4.07-6.37 9.58-9.04 12.99-10.14v-25.78c0-16.54 10.62-34.93 13.14-39.06.48-11.64 5.3-129.18 8.54-182.62 1.53-25.21 7.8-85.97 14.44-150.3 8.45-81.89 17.19-166.56 18.14-195.98.06-1.93 1.67-3.43 3.61-3.38 1.93.06 3.45 1.68 3.39 3.61-.96 29.66-9.71 114.46-18.17 196.47-6.63 64.25-12.89 124.94-14.41 150.01-3.39 55.9-8.52 182.14-8.57 183.41-.02.62-.22 1.22-.55 1.75-.13.2-12.55 19.81-12.55 36.11v28.53a3.5 3.5 0 0 1-3.13 3.48c-.25.03-6.73.91-11.05 7.81-4.03 6.43-6.97 19.59 1.92 45.74.62 1.83-.36 3.82-2.19 4.44-.39.11-.77.17-1.14.17z" class="color151516 svgShape"></path><path fill="#151516" d="M1003.41 2181.61c-.9 0-1.79-.34-2.48-1.03a3.495 3.495 0 0 1 0-4.95c12.68-12.68 31.86-20.84 55.48-23.62 8.31-.98 15.76-1.14 21.38-1.02-9.19-7.24-22.7-16.16-32.08-16.16-1.93 0-3.5-1.57-3.5-3.5s1.57-3.5 3.5-3.5c7.76 0 17.7 4.21 29.52 12.52 8.56 6.01 14.91 11.94 15.18 12.19a3.5 3.5 0 0 1 .78 4.03 3.522 3.522 0 0 1-3.59 2c-.53-.06-53.66-6.04-81.71 22.01-.69.69-1.58 1.03-2.48 1.03zM1098.81 2134.83c-.92 0-1.84-.36-2.53-1.08-10.43-10.92-20.8-16.12-27.67-18.56-7.44-2.65-12.5-2.72-12.55-2.72-1.93-.01-3.49-1.59-3.48-3.51s1.57-3.49 3.49-3.49c.93 0 23.12.27 45.26 23.44a3.495 3.495 0 0 1-.11 4.95c-.67.65-1.54.97-2.41.97zM1107.16 2364.53a3.5 3.5 0 0 1-3.41-2.74l-19.15-86.02c-.42-1.89.77-3.76 2.66-4.18 1.89-.42 3.76.77 4.18 2.66l19.15 86.02c.42 1.89-.77 3.76-2.66 4.18-.26.05-.51.08-.77.08zM1098.81 1765.42c-.97 0-1.93-.4-2.62-1.18-.38-.43-9.45-10.7-26.67-33.35a3.494 3.494 0 0 1 .67-4.9 3.494 3.494 0 0 1 4.9.67c17.06 22.44 26.24 32.84 26.33 32.94a3.498 3.498 0 0 1-.3 4.94c-.65.59-1.48.88-2.31.88zM1124.63 1773.9c-1.23 0-2.43-.65-3.06-1.81-1.25-2.26-30.74-55.71-39.36-85.48a3.5 3.5 0 0 1 2.39-4.34 3.5 3.5 0 0 1 4.34 2.39c8.4 29.02 38.46 83.49 38.76 84.03.94 1.69.32 3.82-1.37 4.76-.55.3-1.13.45-1.7.45zM1667.03 2350.09c-.44 0-.88-.08-1.31-.26a3.502 3.502 0 0 1-1.93-4.56c8.31-20.55 28.14-68.78 32.75-72.89a3.489 3.489 0 0 1 4.94.29 3.495 3.495 0 0 1-.22 4.88c-3.04 3.47-18.21 38.79-30.98 70.35a3.51 3.51 0 0 1-3.25 2.19zm34.19-72.5-.03.03.03-.03zM1705.61 2303.82c-.12 0-.24-.01-.36-.02a3.5 3.5 0 0 1-3.12-3.84c4-38.65 22.67-62.04 55.5-69.54 13.21-4.78 14.42-11.89 16.93-37.96 1.35-14.09 11.86-27.88 28.82-37.83 17.79-10.44 41.72-16.19 67.39-16.19 39.18 0 73.25 5.7 91.55 8.76 2.7.45 5.33.89 7.44 1.21-5.52-6.32-22.19-18.42-52.37-20.43-44.07-2.94-81.38-.03-81.75 0-1.58.12-3.05-.83-3.58-2.32-.53-1.5.01-3.16 1.32-4.06 2.99-2.05 73.73-50.31 121.01-66.24 1.83-.62 3.82.37 4.43 2.2.62 1.83-.37 3.82-2.2 4.43-35.67 12.01-86.65 43.96-108.59 58.27 14.85-.64 40.9-1.2 69.81.73 39.92 2.66 60.81 22.46 60.94 30.32.04 2.45-1.6 4.34-3.99 4.58-1.79.18-5.26-.39-13.65-1.79-18.1-3.03-51.8-8.66-90.4-8.66-52.99 0-86.99 24.25-89.25 47.69-2.47 25.73-3.6 37.47-21.74 43.95-.13.05-.27.09-.41.12-15.69 3.54-27.9 11.15-36.29 22.62-7.55 10.33-12.27 24.07-14 40.86-.14 1.8-1.66 3.14-3.44 3.14zM1818.36 2112.38c-.39 0-.78-.06-1.16-.2a3.501 3.501 0 0 1-2.14-4.46c12.6-35.79 53.33-109.89 87.25-167.29 11.62-19.67 70.28-118.08 83.8-123.34 8.75-3.41 21.2 4.87 39.19 26.04 12.36 14.55 22.78 30.12 22.89 30.27 1.07 1.61.64 3.78-.97 4.85a3.487 3.487 0 0 1-4.85-.97c-.1-.15-10.33-15.42-22.43-29.67-21.44-25.23-29.36-24.76-31.28-24.01-5.95 2.5-36.18 45.65-80.5 120.69-42.31 71.65-76.26 136.71-86.48 165.74a3.527 3.527 0 0 1-3.32 2.35z" class="color151516 svgShape"></path><path fill="#151516" d="M1810.11 2158.45c-1.77 0-3.29-1.34-3.48-3.14-17.7-172.59 7.99-406.12 8.25-408.46.21-1.92 1.95-3.3 3.87-3.09 1.92.21 3.3 1.95 3.09 3.87-.26 2.33-25.88 235.12-8.25 406.97a3.5 3.5 0 0 1-3.12 3.84c-.12 0-.24.01-.36.01zM1858.51 1655.77c-.67 0-1.34-.19-1.94-.59a3.497 3.497 0 0 1-.97-4.85c26.32-39.48 56.73-63.59 83.44-66.15 14.61-1.4 27.66 3.59 38.76 14.84a3.504 3.504 0 0 1-.03 4.95c-1.37 1.36-3.59 1.34-4.95-.03-9.55-9.68-20.7-13.98-33.12-12.79-24.24 2.32-53.5 25.9-78.28 63.06a3.464 3.464 0 0 1-2.91 1.56zM2008.48 1663.66c-1.4 0-2.72-.84-3.26-2.22-.02-.05-2.24-5.52-8.15-12.97-5.45-6.87-15.26-16.88-31-25.54a3.501 3.501 0 0 1-1.38-4.75 3.501 3.501 0 0 1 4.75-1.38c32.48 17.87 41.9 41.1 42.29 42.08a3.501 3.501 0 0 1-3.25 4.78zM1781.94 1804.24c-1.82 0-3.36-1.41-3.49-3.26-7.42-108.6 28.95-239.85 29.32-241.16a3.492 3.492 0 0 1 4.32-2.42c1.86.52 2.95 2.45 2.42 4.32-.37 1.3-36.42 131.42-29.07 238.79.13 1.93-1.33 3.6-3.25 3.73h-.25zM1768.87 1918.16a3.6 3.6 0 0 1-1.61-.39c-2.03-1.06-50.07-26.63-71.73-92.59-.6-1.84.4-3.81 2.23-4.42 1.83-.6 3.82.4 4.42 2.23 20.72 63.12 67.83 88.32 68.31 88.56 1.71.89 2.38 3.01 1.49 4.72a3.516 3.516 0 0 1-3.11 1.89z" class="color151516 svgShape"></path><path fill="#151516" d="M1798.42 1962.32c-12.8 0-41.61-2.93-66.93-26.42a3.497 3.497 0 0 1-.18-4.95 3.497 3.497 0 0 1 4.95-.18c30.56 28.35 67.65 24.33 68.02 24.29 1.92-.22 3.66 1.14 3.89 3.06s-1.13 3.66-3.05 3.89c-.4.04-2.81.31-6.7.31zM1840.46 2457.8c-.38 0-.76-.06-1.13-.19-48.88-16.64-101.28-64.34-136.74-124.48a3.494 3.494 0 0 1 1.24-4.79c1.66-.98 3.81-.43 4.79 1.24 37.05 62.84 84.52 100.3 120.69 116.54-17.91-23.28-33.91-51.24-34.1-51.56-.74-1.29-.58-2.91.4-4.03a3.494 3.494 0 0 1 3.94-.95c.9.36 90.45 35.5 149.82 11.72 1.8-.72 3.83.15 4.55 1.95.72 1.79-.15 3.83-1.95 4.55-26.1 10.45-60.15 11.64-101.21 3.54-19.09-3.77-35.05-8.67-44.52-11.9 7.47 12.31 22.28 35.69 36.86 52.56 1.03 1.2 1.14 2.93.25 4.24a3.44 3.44 0 0 1-2.89 1.56zM1161.07 2321.51c-.85 0-1.7-.31-2.37-.93-1.58-1.46-38.88-36.19-54.78-76.7-.71-1.8.18-3.83 1.98-4.54s3.83.18 4.54 1.98c15.31 38.98 52.64 73.77 53.02 74.11a3.507 3.507 0 0 1 .2 4.95c-.71.76-1.65 1.13-2.59 1.13zM1166.36 2235.53c-.48 0-.97-.1-1.43-.31-.89-.4-21.93-9.95-33.34-21.95a3.505 3.505 0 0 1 .12-4.95 3.505 3.505 0 0 1 4.95.12c10.46 11 30.94 20.3 31.14 20.39 1.76.79 2.55 2.87 1.75 4.63a3.497 3.497 0 0 1-3.19 2.07zM1336.68 964c-20.4 0-43.38-.85-66.56-1.93-1.93-.09-3.42-1.73-3.33-3.66s1.73-3.43 3.66-3.33c53.65 2.5 106.09 3.78 126.4-3.74 5.24-1.94 12.91-7.33 22.82-16.02a3.5 3.5 0 1 1 4.62 5.26c-10.7 9.39-18.88 15.06-25 17.33-12.34 4.55-35.14 6.09-62.61 6.09zM1278.32 990.04a3.503 3.503 0 0 1-1.26-6.77c9.47-3.63 25.83-.32 26.52-.17 1.89.39 3.11 2.24 2.72 4.14a3.499 3.499 0 0 1-4.13 2.72c-4.16-.86-16.32-2.55-22.59-.15-.42.16-.84.23-1.26.23zM1298.77 899.17c-.56 0-1.12-.13-1.64-.41-.43-.23-10.6-5.66-20.58-12.15-15.87-10.32-21.47-16.7-19.33-22.03 3.17-7.93 27.77-41.14 30.57-44.9a3.507 3.507 0 0 1 4.9-.72 3.507 3.507 0 0 1 .72 4.9c-10.57 14.23-26.97 37.16-29.57 43.03 1.11 3.97 17.66 15.62 36.58 25.7a3.49 3.49 0 0 1 1.44 4.73 3.517 3.517 0 0 1-3.09 1.85zM1234.54 782.31a3.507 3.507 0 0 1-3.36-4.48c2.49-8.52 11.11-15.09 21.95-16.75 13.63-2.08 26.52 3.82 34.5 15.79 1.07 1.61.64 3.78-.97 4.85a3.495 3.495 0 0 1-4.85-.97c-6.43-9.65-16.76-14.41-27.62-12.75-8.04 1.23-14.58 5.97-16.29 11.79a3.5 3.5 0 0 1-3.36 2.52zM1480.64 779.98c-.89 0-1.77-.33-2.46-1.01-12.71-12.52-32.79-19.68-52.41-18.68-15.58.79-28.53 6.51-36.47 16.09-1.23 1.49-3.44 1.7-4.93.46s-1.7-3.44-.46-4.93c9.21-11.12 23.95-17.73 41.51-18.62 21.51-1.11 43.61 6.83 57.67 20.68a3.504 3.504 0 0 1 .04 4.95c-.68.72-1.58 1.06-2.49 1.06zM1606.68 988.76c-2.4 0-4.58-1.13-5.99-3.21-5.72-8.41 2.63-28.54 22.32-53.87 14.87-19.11 27.35-26.82 37.11-22.9 10.79 4.34 14.91 22.01 11.9 51.12-.2 1.92-1.92 3.33-3.84 3.12a3.5 3.5 0 0 1-3.12-3.84c1.96-18.97 1-40.47-7.55-43.91-6.14-2.46-16.97 5.27-28.97 20.7-23.59 30.33-22.88 42.31-22.49 44.4.18.97.48 1.33.55 1.38.02.01.16.02.41-.06a3.5 3.5 0 1 1 1.96 6.72c-.77.24-1.54.35-2.29.35z" class="color151516 svgShape"></path><ellipse cx="1630.73" cy="960.59" fill="#FFFFFF" rx="32.82" ry="20.74" transform="rotate(-54.373 1630.812 960.643)" class="colorfff svgShape"></ellipse><path fill="#151516" d="M1620.23 993.4c-3.98 0-7.61-1.1-10.66-3.29-5.51-3.95-8.28-10.84-7.78-19.41.46-7.97 3.74-16.58 9.23-24.24 11.86-16.56 29.81-23.32 40.86-15.4s10.41 27.09-1.45 43.64c-5.49 7.66-12.58 13.53-19.99 16.53-3.55 1.45-6.99 2.17-10.21 2.17zm20.98-58.61c-7.67 0-17.5 5.99-24.5 15.75-4.73 6.59-7.54 13.9-7.93 20.57-.35 6.08 1.37 10.8 4.87 13.31 3.49 2.5 8.52 2.62 14.17.33 6.19-2.51 12.2-7.53 16.93-14.12 9.26-12.92 10.66-28.43 3.07-33.88-1.87-1.33-4.13-1.96-6.61-1.96z" class="color151516 svgShape"></path><path fill="#151516" d="M1392.44 1482.5c-1.18 0-2.01-.06-2.46-.11-2.93-.12-24.65-1.79-50.12-24.77-34.96-31.55-60.03-86.69-74.5-163.87-34.33-183.1-11.14-228.08-10.14-229.91a4.999 4.999 0 1 1 8.76 4.82c-.03.06-5.65 11.22-7.04 44.33-2.32 55.09 8.64 127.7 18.24 178.92 33.25 177.37 114.4 180.48 115.22 180.49.21 0 .43.02.64.05.04 0 9.49 1.04 25.36-6.51 26.91-12.79 50.98-39.79 66.44-60.19 55.1-72.74 87.9-211.86 109.6-303.92l.69-2.94c21.28-90.24 23.14-108.75 23.21-109.49a5.009 5.009 0 0 1 5.43-4.53c2.74.25 4.77 2.66 4.54 5.4-.06.74-1.82 19.22-23.44 110.91l-.69 2.94c-21.89 92.88-54.98 233.24-111.36 307.66-49.78 65.72-87.93 70.72-98.38 70.72z" class="color151516 svgShape"></path><path fill="#151516" d="M1424.48 2519.85c-3.47 0-7.02-.49-10.63-1.57-14.74-4.39-26.83-15.41-36.95-33.69-10.13-18.3-18.07-43.51-24.26-77.08-12.58-68.14-17.63-170.85-15.45-313.98 2.71-177.55 18.42-315.51 31.04-426.36 8.15-71.57 15.19-133.39 17.12-189.94.09-2.76 2.41-4.95 5.17-4.83 2.76.09 4.92 2.41 4.83 5.17-1.94 56.95-9 118.95-17.17 190.73-12.6 110.64-28.28 248.33-30.98 425.38-2.17 142.46 2.83 244.52 15.28 312.01 11.41 61.84 29.15 95.53 54.23 103 16.58 4.94 34.46-6.03 56.25-34.53 20.61-26.95 42.13-66.39 64.91-108.16 12.21-22.4 24.85-45.55 38.09-68.21 38.71-66.21 76.38-100.06 106.09-95.32 24.82 3.97 36.13 33.14 41.24 56.91.58 2.7-1.14 5.36-3.83 5.94-2.7.58-5.36-1.14-5.94-3.84-4.46-20.72-13.82-46.07-33.05-49.14-11.82-1.88-44.82 3.14-95.88 90.49-13.17 22.53-25.76 45.62-37.94 67.95-22.97 42.11-44.66 81.89-65.74 109.45-13.5 17.65-33.28 39.62-56.43 39.62zM1380.69 586.17c-1.57 0-3-1.07-3.4-2.66-2.55-10.35-2.79-22.27-.7-35.42.3-1.91 2.09-3.21 4-2.91a3.5 3.5 0 0 1 2.91 4c-1.94 12.22-1.74 23.21.59 32.65.46 1.88-.68 3.77-2.56 4.24-.28.06-.56.1-.84.1zM1290.3 604.09c-.25 0-.5-.03-.76-.08a3.506 3.506 0 0 1-2.67-4.17c2.48-11.27 7.31-22.38 15.65-36.01a3.496 3.496 0 0 1 4.81-1.16 3.496 3.496 0 0 1 1.16 4.81c-7.92 12.94-12.47 23.38-14.78 33.86a3.508 3.508 0 0 1-3.41 2.75zM1738.15 881.31c-1.63 0-3.08-1.14-3.42-2.8-.19-.91-4.69-21.07-26.59-23.56-12.65-1.44-23.74-8.28-32.07-19.77-3.98-5.5-7.2-11.92-9.51-18.87l-1 6.03a3.467 3.467 0 0 1-1.7 2.45c-.9.52-1.99.62-2.97.25-.61-.23-13.97-5.42-25.4-28.77l-3.64 5.98a3.507 3.507 0 0 1-4.81 1.17c-1.65-1-2.18-3.16-1.17-4.81l7.09-11.65a3.554 3.554 0 0 1 3.26-1.67c1.31.1 2.46.93 2.96 2.14 7.13 17.11 15.53 25.22 20.32 28.72l3.25-19.5c.29-1.74 1.84-2.98 3.59-2.92 1.76.07 3.2 1.44 3.35 3.19 1.99 22.67 15.12 48.31 39.25 51.06 27.07 3.09 32.61 28.86 32.66 29.12.38 1.89-.84 3.74-2.73 4.13-.25.05-.49.08-.72.08zM1051.63 2567.62c-.61 0-1.21-.12-1.82-.36-2.99-1.2-7.51-5.13-15.94-25.04-4.47-10.56-7.98-20.85-8.01-20.95a3.51 3.51 0 0 1 .12-2.55l18.4-41.36a3.503 3.503 0 0 1 4.62-1.78 3.49 3.49 0 0 1 1.77 4.62l-17.84 40.1c7.26 21.07 15.11 36.77 18.71 39.94 1.99-1.7 8.32-9.2 24.79-42.32 10.12-20.36 19.09-40.38 19.18-40.58a3.51 3.51 0 0 1 4.62-1.77c1.76.79 2.56 2.86 1.77 4.62-.1.22-10.05 22.44-20.87 43.98-6.38 12.7-11.82 22.7-16.17 29.72-5.29 8.57-9.33 13.72-13.33 13.73z" class="color151516 svgShape"></path><path fill="#151516" d="M1077.45 2656.88c-1.25 0-2.46-.67-3.09-1.85-14.51-27.22-16.85-98.14-16.94-101.15a3.506 3.506 0 0 1 3.39-3.61c1.96-.03 3.55 1.46 3.61 3.39.02.72 2.38 72.29 16.12 98.07.91 1.71.26 3.83-1.44 4.74-.53.27-1.09.41-1.65.41zM1818.36 2600c-.78 0-1.56-.26-2.21-.79a3.495 3.495 0 0 1-.5-4.92c9.15-11.23 12.65-29.41 8.34-43.23-2.23-7.15-7.56-16.45-20.28-20.14a3.495 3.495 0 0 1-2.39-4.33 3.503 3.503 0 0 1 4.33-2.39c12.25 3.55 21.14 12.35 25.01 24.77 5.04 16.16 1.1 36.62-9.59 49.74-.69.85-1.69 1.29-2.71 1.29zM1718.41 2548.82c-1.19 0-2.34-.6-3-1.69-.52-.86-51.92-86.42-73.6-153.21-.6-1.84.41-3.81 2.25-4.41 1.84-.59 3.81.41 4.41 2.25 21.43 66.02 72.42 150.91 72.94 151.76 1 1.66.47 3.81-1.19 4.8-.57.34-1.19.5-1.81.5zM1361.47 1270.84a3.497 3.497 0 0 1-3.47-3.96c.04-.29 3.75-28.74 3.44-51.78a3.504 3.504 0 0 1 3.45-3.55c1.92-.02 3.52 1.52 3.55 3.45.32 23.56-3.46 52.5-3.5 52.79a3.51 3.51 0 0 1-3.47 3.05zM1519.08 1232.77c-1.62 0-3.08-1.13-3.42-2.79-.03-.16-3.31-15.95-5.71-36.48a3.498 3.498 0 0 1 3.07-3.88c1.93-.21 3.66 1.15 3.88 3.07 2.36 20.22 5.58 35.7 5.61 35.86.4 1.89-.82 3.75-2.71 4.14-.24.06-.48.08-.72.08zM1259.61 1456.89c-1.72 0-3.21-1.26-3.46-3.01-3.18-22.42-4.15-65.08-2.88-126.77.94-45.86 2.84-85.69 2.86-86.08.05-1.03.55-1.98 1.36-2.61l30.35-23.33 11.08-21.39c.89-1.72 3-2.39 4.72-1.5s2.39 3 1.5 4.72l-11.44 22.09c-.24.46-.57.85-.97 1.17l-29.68 22.82c-.77 16.87-7.03 160.12.03 209.92a3.505 3.505 0 0 1-2.97 3.96c-.17 0-.34.01-.5.01z" class="color151516 svgShape"></path><path fill="#B8CCD8" d="M831.09 905.87c-48.86-16.52-41.06 22-10.67 14.65 1.39 13.77.07 39.22-1.09 56.14-4.08-6.65-11.42-11.08-19.79-11.06-12.77.03-23.1 10.41-23.07 23.19.03 12.77 10.41 23.1 23.19 23.07 8.2-.02 14.05-.62 22.79-5.89 8.74-5.27 9.47-20.4 10.51-37.94 2.46-41.56 1.83-60.91-1.87-62.16z" class="colorb8ccd8 svgShape"></path><path fill="#151516" d="M799.59 1015.34c-14.65 0-26.59-11.9-26.62-26.56-.02-7.11 2.73-13.8 7.75-18.85s11.69-7.83 18.81-7.85h.07c6.25 0 12.11 2.13 16.78 5.92.81-13.54 1.56-31.47.86-43.37-8.59 1.05-18.1-.99-22.73-8.15-2.69-4.17-2.63-9 .17-12.59 7.81-10.02 28.85-4.28 37.53-1.34 4.67 1.58 7.71 7.21 4.25 65.67l-.06 1.01c-1.06 18.03-1.98 33.59-12.14 39.72-9.76 5.88-16.63 6.37-24.59 6.39h-.08zm.01-46.25h-.05a19.49 19.49 0 0 0-13.86 5.78c-3.7 3.72-5.73 8.65-5.71 13.89s2.07 10.17 5.78 13.86c3.7 3.68 8.62 5.71 13.84 5.71h.05c7.32-.02 12.73-.4 21-5.38 7-4.22 7.82-18.08 8.76-34.13l.06-1.01c2.66-44.85 1.15-56.23-.14-58.84-11.06-3.65-25.07-5.97-29.12-.77-1.29 1.66-.44 3.53.18 4.49 2.44 3.78 9.49 6.78 19.21 4.42.98-.24 2.02-.04 2.85.55.83.58 1.36 1.5 1.46 2.5 1.38 13.73.18 38.43-1.08 56.73-.1 1.52-1.18 2.8-2.66 3.16-1.48.37-3.02-.27-3.82-1.57-3.61-5.89-9.87-9.39-16.75-9.39zm30.36-59.91z" class="color151516 svgShape"></path><path fill="#B8CCD8" d="M2168.73 949.18c-61.96-30.62-58.44 21.93-16.77 17.55-.61 18.54-6.88 52.1-11.42 74.36-4.23-9.56-13.2-16.75-24.32-18.21-16.97-2.23-32.53 9.73-34.75 26.69-2.23 16.97 9.73 32.53 26.69 34.75 10.9 1.43 18.77 1.68 31.32-3.77 12.55-5.44 16.21-25.41 20.7-48.52 10.65-54.72 13.25-80.53 8.55-82.85z" class="colorb8ccd8 svgShape"></path><path fill="#151516" d="M2119.09 1088.72c-3.75 0-7.43-.4-11.39-.92-9.13-1.2-17.25-5.88-22.86-13.19-5.61-7.31-8.04-16.36-6.84-25.49 2.47-18.85 19.82-32.18 38.68-29.71 8.87 1.16 16.71 5.59 22.18 12.29 3.66-18.56 8.32-44.55 9.42-61.25-11.56.21-24.11-3.94-28.93-14.18-2.61-5.55-1.76-11.42 2.23-15.33 3.87-3.8 16.35-10.9 48.72 5.1 5.09 2.52 8.1 10.77-6.67 86.68l-.26 1.33c-4.55 23.42-8.49 43.65-22.48 49.72-8.71 3.77-15.37 4.95-21.8 4.95zm-6.92-62.6c-13.58 0-25.42 10.09-27.23 23.91-.96 7.28.98 14.5 5.45 20.32 4.47 5.82 10.94 9.56 18.22 10.51 9.92 1.3 17.33 1.76 29.47-3.51 10.62-4.61 14.22-23.16 18.4-44.64l.26-1.34c12.05-61.91 11.56-76.33 10.06-79.26-22.94-11.26-36.06-10.39-40.33-6.19-2.63 2.58-1.43 6-.8 7.35 2.83 6.02 11.96 11.42 25.93 9.96 1.01-.11 2.01.23 2.75.92.74.69 1.15 1.67 1.11 2.68-.6 18.4-6.58 50.92-11.49 74.95a3.494 3.494 0 0 1-3.05 2.78c-1.52.16-2.96-.67-3.58-2.06-3.92-8.86-11.99-14.9-21.58-16.15-1.21-.15-2.41-.23-3.59-.23zm55.01-73.81z" class="color151516 svgShape"></path><path fill="#B8CCD8" d="M2064.77 829.18c-30.73-31.61-40.01 2.38-13.93 7.82-4.39 11.62-15.46 31.65-23.03 44.86-.48-6.89-4.33-13.21-10.72-16.33-9.75-4.75-21.73-.25-26.76 10.06-5.03 10.31-1.19 22.52 8.56 27.28 6.26 3.05 10.96 4.76 19.71 3.78s15.29-12.91 23.02-26.66c18.31-32.58 25.48-48.42 23.15-50.81z" class="colorb8ccd8 svgShape"></path><path fill="#151516" d="M2014.05 910.41c-6.99 0-11.62-1.93-16.69-4.41-5.59-2.72-9.72-7.57-11.63-13.65-1.88-6.01-1.37-12.51 1.46-18.3 5.86-12.03 19.97-17.27 31.44-11.68a22.36 22.36 0 0 1 10.34 10.35c7.89-14.07 13.82-25.62 17.16-33.41-9.23-3.22-13.28-9.85-13.91-15.01-.58-4.78 1.54-8.93 5.51-10.83 10.26-4.9 24.08 7.64 29.55 13.27 3.17 3.26 3.31 8.85-22.61 54.97l-.44.79c-7.98 14.21-14.87 26.47-25.24 27.63-1.78.19-3.42.28-4.94.28zm-5.17-43.28c-6.21 0-12.35 3.71-15.4 9.98-2.04 4.18-2.42 8.85-1.07 13.14 1.33 4.22 4.17 7.58 8.01 9.46 5.65 2.75 9.66 4.37 17.79 3.45 6.8-.76 13.17-12.1 19.91-24.1l.44-.79c19.34-34.41 22.93-44.42 23.12-47.23-5.59-5.61-15.73-13.74-20.94-11.26-1.73.83-1.68 2.85-1.58 3.68.46 3.84 4.47 8.45 12.39 10.1 1 .21 1.86.85 2.35 1.74.49.9.57 1.96.21 2.92-4.38 11.59-15.07 31.07-23.27 45.36a3.502 3.502 0 0 1-6.53-1.5c-.41-5.93-3.69-10.95-8.76-13.42-2.13-1.03-4.4-1.53-6.67-1.53zm53.38-35.51h.01-.01z" class="color151516 svgShape"></path><path fill="#B8CCD8" d="M967.25 792.78c-30.73-31.61-40.01 2.38-13.93 7.82-4.39 11.62-15.46 31.65-23.03 44.86-.48-6.89-4.33-13.21-10.72-16.33-9.75-4.75-21.73-.25-26.76 10.06-5.03 10.31-1.19 22.52 8.56 27.28 6.26 3.05 10.96 4.76 19.71 3.78s15.29-12.91 23.02-26.66c18.31-32.57 25.48-48.41 23.15-50.81z" class="colorb8ccd8 svgShape"></path><path fill="#151516" d="M916.53 874.02c-6.99 0-11.62-1.93-16.69-4.41-5.59-2.72-9.72-7.57-11.63-13.65-1.89-6.01-1.37-12.51 1.46-18.3 2.82-5.79 7.63-10.21 13.52-12.42 5.96-2.24 12.33-1.98 17.92.75 4.59 2.24 8.16 5.88 10.33 10.35 5.81-10.37 13.07-23.83 17.16-33.41-9.23-3.22-13.28-9.85-13.91-15.01-.58-4.78 1.54-8.93 5.51-10.83 10.26-4.9 24.08 7.65 29.54 13.27 3.17 3.26 3.31 8.85-22.61 54.97l-.45.79c-7.98 14.2-14.87 26.47-25.23 27.63-1.75.18-3.39.27-4.92.27zm-5.18-43.29c-1.9 0-3.83.35-5.7 1.05-4.21 1.58-7.65 4.76-9.69 8.94-2.04 4.18-2.42 8.85-1.07 13.14 1.33 4.22 4.17 7.58 8.01 9.46 5.65 2.75 9.66 4.36 17.79 3.45 6.8-.76 13.17-12.09 19.91-24.1l.45-.79c19.34-34.42 22.93-44.42 23.12-47.23-5.59-5.61-15.73-13.74-20.94-11.26-1.73.83-1.68 2.85-1.58 3.68.46 3.84 4.47 8.45 12.39 10.1 1 .21 1.86.85 2.35 1.74.49.9.57 1.96.21 2.92-4.38 11.6-15.07 31.07-23.27 45.36a3.486 3.486 0 0 1-3.82 1.67c-1.5-.34-2.6-1.63-2.71-3.17-.41-5.93-3.69-10.95-8.76-13.42-2.1-1.02-4.38-1.54-6.69-1.54zm53.39-35.51zm0 0z" class="color151516 svgShape"></path><path fill="#B8CCD8" d="M2220.18 742.56c-42.36-26.46-43.38 13.44-13.21 12.37-1.68 13.98-8.44 39.01-13.2 55.59-2.39-7.45-8.33-13.37-16.21-15.07-12.02-2.59-23.98 5.61-26.72 18.31-2.74 12.7 4.78 25.1 16.8 27.7 7.72 1.66 13.34 2.27 22.71-1.17 9.37-3.44 13.33-18.34 18.11-35.56 11.33-40.8 14.93-60.16 11.72-62.17z" class="colorb8ccd8 svgShape"></path><path fill="#151516" d="M2177.71 846.29c-3.75 0-7.17-.62-10.81-1.41-13.88-2.99-22.62-17.28-19.48-31.85 3.14-14.57 16.99-23.99 30.88-21 5.85 1.26 10.89 4.51 14.48 9.14 4.06-14.58 8.34-31.3 10.18-42.83-11.13-.89-17.41-7.04-19.47-12.5-1.86-4.91-.71-9.85 3-12.89 9.73-7.98 28.11 1.98 35.56 6.64 4.06 2.54 5.71 8.77-10.2 66.08l-.28 1c-4.9 17.66-9.13 32.92-20 36.91-5.46 2-9.85 2.71-13.86 2.71zm-4.61-47.81c-8.76 0-16.8 6.56-18.84 16.03-2.33 10.8 4 21.36 14.11 23.54 7.04 1.52 11.95 2.21 20.77-1.03 7.5-2.76 11.47-17.07 15.67-32.21l.28-1c12.24-44.08 13.29-55.76 12.64-58.64-14.79-9.09-23.67-9.36-26.81-6.79-1.91 1.57-1.26 4.02-.89 5 1.61 4.26 7.45 8.39 16.82 8.07a3.53 3.53 0 0 1 2.7 1.13c.69.75 1.02 1.77.9 2.79-1.67 13.91-8.17 38.2-13.31 56.14a3.498 3.498 0 0 1-3.31 2.53h-.05a3.49 3.49 0 0 1-3.33-2.43c-2.11-6.58-7.2-11.33-13.62-12.71-1.26-.29-2.5-.42-3.73-.42zm45.22-52.95z" class="color151516 svgShape"></path><circle cx="1433.63" cy="1886.69" r="317.45" fill="#B8CCD8" class="colorb8ccd8 svgShape"></circle><path fill="#151516" d="M1433.63 2207.64c-85.73 0-166.33-33.38-226.94-94-60.62-60.62-94-141.22-94-226.94s33.38-166.33 94-226.94c60.62-60.62 141.22-94 226.94-94 85.73 0 166.33 33.38 226.94 94 60.62 60.62 94 141.22 94 226.94 0 85.73-33.38 166.33-94 226.94s-141.21 94-226.94 94zm0-634.9c-83.86 0-162.7 32.66-221.99 91.95s-91.95 138.14-91.95 221.99 32.66 162.7 91.95 221.99c59.3 59.3 138.14 91.95 221.99 91.95s162.7-32.66 222-91.95c59.3-59.3 91.95-138.14 91.95-221.99s-32.66-162.7-91.95-221.99c-59.31-59.29-138.14-91.95-222-91.95z" class="color151516 svgShape"></path><path fill="#FFFFFF" d="M1368.06 1726.74v319.9l187.81-159.95zM1957.4 1798.65v176.08l103.37-88.04z" class="colorfff svgShape"></path><path fill="#151516" d="M1957.39 1978.23c-.5 0-1-.11-1.47-.32a3.492 3.492 0 0 1-2.03-3.18v-176.08c0-1.37.79-2.61 2.03-3.18a3.52 3.52 0 0 1 3.74.51l103.38 88.04a3.514 3.514 0 0 1 0 5.34l-103.38 88.04c-.64.54-1.45.83-2.27.83zm3.51-172.01v160.93l94.48-80.46-94.48-80.47z" class="color151516 svgShape"></path><path fill="#FFFFFF" d="M2020.97 1798.65v176.08l103.38-88.04z" class="colorfff svgShape"></path><path fill="#151516" d="M2020.97 1978.23c-.5 0-1-.11-1.47-.32a3.492 3.492 0 0 1-2.03-3.18v-176.08c0-1.37.79-2.61 2.03-3.18a3.52 3.52 0 0 1 3.74.51l103.38 88.04a3.514 3.514 0 0 1 0 5.34l-103.38 88.04c-.65.54-1.45.83-2.27.83zm3.5-172.01v160.93l94.48-80.46-94.48-80.47z" class="color151516 svgShape"></path><path fill="#FFFFFF" d="M909.86 1798.65v176.08l-103.38-88.04z" class="colorfff svgShape"></path><path fill="#151516" d="M909.86 1978.23c-.82 0-1.62-.29-2.27-.83l-103.38-88.04a3.514 3.514 0 0 1 0-5.34l103.38-88.04a3.5 3.5 0 0 1 3.74-.51c1.24.57 2.03 1.81 2.03 3.18v176.08c0 1.37-.79 2.61-2.03 3.18-.47.21-.97.32-1.47.32zm-97.98-91.54 94.48 80.46v-160.93l-94.48 80.47z" class="color151516 svgShape"></path><path fill="#FFFFFF" d="M846.28 1798.65v176.08l-103.37-88.04z" class="colorfff svgShape"></path><path fill="#151516" d="M846.28 1978.23c-.82 0-1.62-.29-2.27-.83l-103.38-88.04a3.514 3.514 0 0 1 0-5.34l103.38-88.04a3.5 3.5 0 0 1 3.74-.51c1.24.57 2.03 1.81 2.03 3.18v176.08c0 1.37-.79 2.61-2.03 3.18-.47.21-.97.32-1.47.32zm-97.98-91.54 94.48 80.46v-160.93l-94.48 80.47z" class="color151516 svgShape"></path></svg>